<svg width="275" height="248" viewBox="0 0 275 248" fill="none" xmlns="http://www.w3.org/2000/svg">
<g filter="url(#filter0_d)">
<path d="M250.495 61.7092C246.24 63.7787 243.017 67.4373 239.904 70.9998C238.186 72.9668 235.752 75.1325 233.31 74.2034C231.792 73.6267 230.927 72.0057 230.517 70.4295C230.107 68.8533 230.011 67.1938 229.351 65.7009C227.428 61.3503 221.213 60.2867 217.068 62.6254C212.922 64.9641 210.622 69.6158 209.443 74.229C208.264 78.8423 207.937 83.6478 206.483 88.1777C205.906 89.9782 205.009 91.8812 203.279 92.6244C200.986 93.6111 198.371 92.1182 196.641 90.3178C194.911 88.5173 193.476 86.2876 191.214 85.2304C188.229 83.84 184.506 84.9869 182.148 87.2935C179.79 89.6002 178.592 92.8423 177.874 96.0651C175.1 108.521 183.41 126.436 192.368 135.521L263.796 62.7984C260.343 59.5627 254.749 59.646 250.495 61.7092Z" fill="#AAE0FE"/>
<path d="M265.123 76.087C263.13 80.3799 259.529 83.6732 256.024 86.8513C254.102 88.6005 251.969 91.0737 252.936 93.4956C253.538 95.0078 255.179 95.8407 256.781 96.2187C258.382 96.5968 260.029 96.6737 261.528 97.3016C265.911 99.1405 267.083 105.343 264.822 109.533C262.56 113.724 257.947 116.101 253.365 117.363C248.784 118.625 243.972 119.042 239.468 120.567C237.68 121.207 235.79 122.111 235.079 123.86C234.131 126.167 235.675 128.755 237.501 130.453C239.327 132.151 241.589 133.541 242.684 135.784C244.139 138.744 243.056 142.492 240.762 144.889C238.468 147.285 235.278 148.547 232.074 149.323C219.663 152.321 201.607 144.331 192.349 135.534L263.777 62.811C267.09 66.1941 267.116 71.7877 265.123 76.087Z" fill="#77CCFE"/>
<path d="M192.361 135.528C192.733 135.88 193.117 136.226 193.515 136.572L200.229 129.441L233.105 139.404L201.774 127.801L223.924 104.279L250.898 107.97L225.494 102.613L243.806 83.1352L224.686 101.793L218.868 76.4908L223.046 103.402L199.922 125.981L187.748 94.867L198.301 127.544L191.298 134.394C191.657 134.791 192.009 135.169 192.361 135.528Z" fill="#D8F2FE"/>
<path d="M206.598 139.423C211.269 133.657 216.895 128.531 223.59 125.327C229.998 122.258 237.231 121.066 244.35 121.124C251.103 121.175 258.145 122.444 263.508 126.551C268.871 130.658 272.036 138.155 269.544 144.434C267.82 148.772 263.719 151.86 259.292 153.289C254.864 154.718 250.059 154.679 245.414 154.237C240.768 153.795 236.142 152.956 231.471 152.827C215.338 152.405 199.473 161.08 190.343 174.388C193.322 158.005 202.222 144.812 206.598 139.423Z" fill="#E0422D"/>
<path d="M270.344 138.558C270.546 140.553 270.272 142.566 269.544 144.434C267.82 148.772 263.719 151.86 259.292 153.289C254.864 154.718 250.059 154.679 245.414 154.237C240.768 153.795 236.142 152.956 231.471 152.827C215.338 152.405 199.473 161.08 190.343 174.388C212.307 115.377 270.344 138.558 270.344 138.558Z" fill="#FF5B42"/>
<path d="M182.046 202.798L176.695 214.485C176.574 214.73 176.503 214.998 176.486 215.271C176.47 215.545 176.508 215.819 176.6 216.077C176.692 216.335 176.834 216.572 177.019 216.774C177.204 216.976 177.428 217.139 177.677 217.253C177.926 217.367 178.196 217.429 178.469 217.437C178.743 217.444 179.016 217.397 179.271 217.297C179.526 217.197 179.759 217.047 179.954 216.856C180.15 216.664 180.306 216.436 180.412 216.183L185.743 204.509L182.046 202.798Z" fill="#003672"/>
<path d="M218.567 127.647L208.956 129.671L188.786 173.85C183.655 185.079 179.994 196.924 177.894 209.09V209.09L180.758 210.371L183.615 211.653C191.459 202.123 198.038 191.62 203.19 180.404L223.353 136.226L218.567 127.647Z" fill="#FFBB45"/>
<path d="M208.976 129.671L205.125 138.104L219.484 144.658L223.335 136.226L221.169 132.331L213.339 128.755L208.976 129.671Z" fill="#FF9A30"/>
<path d="M239.659 81.4564C237.358 80.4074 234.735 80.3148 232.366 81.199C229.996 82.0833 228.075 83.8721 227.024 86.1722L206.393 131.414L223.692 139.334L244.349 94.0916C245.4 91.7938 245.497 89.1729 244.617 86.8042C243.738 84.4354 241.955 82.5122 239.659 81.4564V81.4564Z" fill="#FFBB45"/>
<path d="M233.572 85.726L232.902 85.4201C231.797 84.9162 230.494 85.4028 229.99 86.507L211.51 127.001C211.006 128.105 211.493 129.409 212.597 129.913L213.267 130.219C214.372 130.723 215.675 130.236 216.179 129.132L234.659 88.6378C235.163 87.5336 234.676 86.2299 233.572 85.726Z" fill="#FFE187"/>
<path d="M209.021 140.948C208.786 140.84 208.532 140.779 208.274 140.77C208.016 140.76 207.759 140.802 207.517 140.893C207.275 140.983 207.053 141.121 206.865 141.298C206.676 141.474 206.525 141.687 206.419 141.922L188.28 181.648C188.063 182.122 188.044 182.664 188.227 183.153C188.41 183.642 188.779 184.039 189.254 184.255C189.729 184.472 190.271 184.491 190.76 184.308C191.249 184.126 191.645 183.756 191.862 183.281L209.994 143.556C210.102 143.321 210.162 143.067 210.171 142.809C210.18 142.55 210.139 142.292 210.048 142.05C209.958 141.808 209.82 141.586 209.644 141.397C209.468 141.208 209.256 141.055 209.021 140.948V140.948Z" fill="#FFE187"/>
<path d="M225.89 88.6656L244.016 96.9418C245.12 97.4457 245.978 98.3675 246.403 99.5042C246.827 100.641 246.782 101.9 246.278 103.003L245.959 103.703L223.67 93.5267L225.89 88.6656V88.6656Z" fill="#003672"/>
<path d="M243.024 102.357L223.872 144.306C223.703 144.697 223.694 145.139 223.847 145.536C223.999 145.934 224.302 146.256 224.69 146.433C225.077 146.61 225.519 146.628 225.919 146.483C226.32 146.338 226.648 146.042 226.833 145.658L245.978 103.703L243.024 102.357Z" fill="#003672"/>
<path d="M74.2362 147.58C70.693 141.044 66.0925 134.964 60.0825 130.588C54.3159 126.384 47.4345 123.892 40.4121 122.642C33.7485 121.457 26.5915 121.412 20.5494 124.475C14.5073 127.538 10.0222 134.336 11.3293 140.98C12.2263 145.568 15.6991 149.361 19.8126 151.584C23.9261 153.808 28.6546 154.647 33.3128 155.057C37.9709 155.467 42.6738 155.493 47.2935 156.223C63.2605 158.786 77.2989 170.217 83.8472 184.992C83.8985 168.307 77.5552 153.692 74.2362 147.58Z" fill="#E0422D"/>
<path d="M11.6112 135.034C11.05 136.962 10.9534 138.995 11.3293 140.968C12.2263 145.555 15.699 149.348 19.8125 151.572C23.926 153.795 28.6546 154.634 33.3127 155.044C37.9709 155.454 42.6738 155.48 47.2935 156.211C63.2605 158.773 77.2989 170.204 83.8472 184.979C73.0188 122.86 11.6112 135.034 11.6112 135.034Z" fill="#FF5B42"/>
<path d="M165.124 73.3894C167.853 66.2581 171.717 59.4343 177.253 54.1675C182.558 49.1121 189.234 45.6394 196.225 43.416C202.85 41.308 210.142 40.2957 216.728 42.6023C223.315 44.9089 228.78 51.233 228.351 58.1721C228.056 62.9711 225.032 67.3089 221.136 70.1281C217.241 72.9473 212.544 74.4402 207.848 75.491C203.151 76.5418 198.365 77.1954 193.752 78.5729C177.823 83.3144 165.066 96.8786 160.389 112.82C158.076 95.8214 162.567 80.0658 165.124 73.3894Z" fill="#FF9A30"/>
<path d="M227.243 52.1622C228.072 54.0503 228.445 56.1069 228.332 58.1658C228.038 62.9649 225.013 67.3026 221.118 70.1218C217.222 72.9411 212.526 74.434 207.829 75.4848C203.132 76.5356 198.346 77.1891 193.733 78.5667C177.804 83.3081 165.047 96.8724 160.37 112.814C163.029 48.0294 227.243 52.1622 227.243 52.1622Z" fill="#FFBB45"/>
<path d="M68.2128 156.762C61.1648 153.494 53.5785 151.258 45.8449 151.322C38.4188 151.386 31.1081 153.564 24.4701 156.87C18.1653 160.01 12.1489 164.412 8.99646 170.717C5.84407 177.021 6.3118 185.486 11.5145 190.233C15.1154 193.514 20.3694 194.533 25.1877 193.834C30.006 193.136 34.4783 190.919 38.6431 188.375C42.8078 185.832 46.7419 182.935 51.0604 180.686C65.9831 172.914 84.8206 173.786 99.4613 182.083C89.1391 168.109 74.7739 159.818 68.2128 156.762Z" fill="#FF9A30"/>
<path d="M8.08105 185.095C8.80761 187.049 9.98412 188.805 11.5154 190.22C15.1163 193.501 20.3703 194.52 25.1886 193.821C30.0069 193.123 34.4792 190.906 38.6439 188.362C42.8087 185.819 46.7428 182.922 51.0613 180.674C65.9839 172.901 84.8214 173.773 99.4621 182.07C51.8686 136.841 8.08105 185.095 8.08105 185.095Z" fill="#FFBB45"/>
<path d="M70.1544 80.4441C67.4505 74.7288 65.5795 68.5201 65.586 62.2025C65.586 56.1348 67.3287 50.1568 69.9942 44.7105C72.5187 39.5398 76.0811 34.5998 81.207 31.992C86.3328 29.3843 93.2591 29.711 97.1612 33.9142C99.8651 36.836 100.73 41.116 100.192 45.0629C99.6536 49.0098 97.8596 52.662 95.8092 56.0707C93.7589 59.4794 91.4138 62.7215 89.6005 66.2647C83.3406 78.4963 84.1671 93.8802 91.0294 105.791C79.5283 97.4747 72.6917 85.7878 70.1544 80.4441Z" fill="#FF9A30"/>
<path d="M92.945 31.1526C94.5495 31.7351 95.9939 32.6878 97.161 33.9334C99.8649 36.8551 100.73 41.1352 100.192 45.0821C99.6535 49.029 97.8594 52.6811 95.8091 56.0898C93.7588 59.4985 91.4137 62.7406 89.6004 66.2839C83.3405 78.5154 84.167 93.8994 91.0292 105.811C53.79 67.2065 92.945 31.1526 92.945 31.1526Z" fill="#FFBB45"/>
<path d="M203.561 158.383C209.872 155.544 216.709 153.635 223.629 153.789C230.267 153.93 236.764 155.967 242.671 159.004C248.271 161.881 253.596 165.892 256.338 171.562C259.08 177.233 258.561 184.8 253.852 188.984C250.604 191.874 245.888 192.7 241.588 192.059C237.289 191.419 233.317 189.336 229.632 187.01C225.948 184.685 222.456 182.051 218.625 179.962C205.374 172.837 188.51 173.395 175.337 180.635C184.717 168.276 197.66 161.035 203.561 158.383Z" fill="#FF9A30"/>
<path d="M257.011 184.428C256.34 186.173 255.267 187.734 253.878 188.984C250.604 191.874 245.888 192.7 241.588 192.059C237.289 191.419 233.317 189.336 229.632 187.01C225.948 184.685 222.456 182.051 218.625 179.962C205.374 172.837 188.51 173.395 175.337 180.635C218.413 140.801 257.011 184.428 257.011 184.428Z" fill="#FFBB45"/>
<path d="M92.5613 44.0506C92.4587 47.895 93.8812 51.592 95.278 55.1737C96.0468 57.1472 96.694 59.7101 95.1114 61.1197C94.1246 62.0039 92.6381 62.0167 91.3503 61.7156C90.0624 61.4144 88.8258 60.8698 87.5059 60.7801C83.6615 60.5302 80.5475 64.6245 80.6757 68.4689C80.8038 72.3133 83.2899 75.7348 86.1668 78.3169C89.0436 80.8991 92.3883 82.943 95.105 85.6853C96.1878 86.7746 97.2194 88.1393 97.104 89.6707C96.9567 91.6954 94.8935 93.0153 92.9521 93.5855C91.0107 94.1558 88.8578 94.3544 87.2496 95.5846C85.1224 97.2121 84.5521 100.326 85.3274 102.889C86.1027 105.452 87.9864 107.534 90.0368 109.296C97.969 115.973 113.987 116.71 123.899 113.666L98.3471 34.8754C94.7141 36.144 92.6702 40.2062 92.5613 44.0506Z" fill="#FF5B42"/>
<path d="M108.406 38.9247C110.745 41.9681 111.764 45.7997 112.737 49.5159C113.276 51.5663 114.256 54.001 116.364 54.2381C117.645 54.3663 118.895 53.5013 119.76 52.5081C120.625 51.515 121.31 50.3361 122.323 49.4967C125.296 47.0235 130.204 48.51 132.369 51.7136C134.535 54.9173 134.516 59.1269 133.709 62.9072C132.901 66.6875 131.389 70.3012 130.8 74.12C130.569 75.6385 130.537 77.3237 131.524 78.5154C132.805 80.066 135.278 79.9314 137.188 79.2458C139.097 78.5603 140.942 77.4646 142.954 77.5159C145.633 77.5864 147.92 79.7713 148.798 82.3021C149.676 84.833 149.368 87.6202 148.727 90.1831C146.228 100.243 133.696 110.251 123.886 113.608L98.3467 34.8752C102.024 33.7988 106.061 35.8556 108.406 38.9247Z" fill="#E0422D"/>
<path d="M123.906 113.627C124.297 113.499 124.694 113.345 125.091 113.192L122.458 105.676L141.974 85.7364L121.856 103.946L113.244 79.1625L126.059 61.1195L112.655 77.4005L105.523 56.8971L111.783 77.6696L91.376 72.3579L112.321 79.4508L119.895 104.6L92.9137 101.678L120.42 106.355L122.714 113.973C123.099 113.89 123.515 113.749 123.906 113.627Z" fill="#FFA599"/>
<path d="M7.58732 67.341C8.64453 70.7689 11.0216 73.6137 13.3539 76.356C14.6354 77.8746 15.9745 79.9505 15.0006 81.6741C14.3983 82.7505 13.0784 83.2055 11.8546 83.3336C10.6308 83.4617 9.36214 83.3336 8.17038 83.6668C4.68481 84.6022 3.17268 89.1514 4.44774 92.5281C5.72279 95.9047 8.93285 98.1665 12.2775 99.5761C15.6221 100.986 19.1717 101.787 22.401 103.421C23.6825 104.061 25.0088 104.958 25.3676 106.342C25.8482 108.181 24.4257 109.969 22.8752 111.058C21.3246 112.147 19.4857 112.98 18.4349 114.544C17.0445 116.626 17.4802 119.548 18.9411 121.592C20.4019 123.636 22.6958 124.898 25.028 125.808C34.0559 129.325 48.4467 125.167 56.3021 119.471L9.9388 57.5057C7.12599 59.7034 6.52371 63.9131 7.58732 67.341Z" fill="#FFBB45"/>
<path d="M20.0492 58.0185C23.035 60.0111 25.0918 63.0866 27.0972 66.0853C28.1929 67.7383 29.8011 69.6157 31.7297 69.1672C32.9343 68.8852 33.748 67.7576 34.2158 66.6042C34.6835 65.4509 34.927 64.2207 35.5741 63.1699C37.4579 60.088 42.2441 59.9214 45.1274 62.0999C48.0107 64.2784 49.2601 68.0139 49.683 71.6019C50.1059 75.19 49.8624 78.8422 50.4903 82.3983C50.7402 83.8079 51.2272 85.3328 52.4574 86.0697C54.0784 87.0436 56.1993 86.185 57.6857 85.006C59.1722 83.8271 60.4729 82.2957 62.2798 81.7319C64.6697 80.9887 67.3544 82.2317 68.8921 84.2051C70.4299 86.1786 71.0065 88.7415 71.218 91.2532C72.0381 100.909 63.9713 113.538 56.3082 119.445L9.93848 57.5059C12.8922 55.4043 17.057 56.0322 20.0492 58.0185Z" fill="#FF9A30"/>
<path d="M56.2833 119.452C56.5845 119.215 56.9241 118.965 57.1996 118.708L52.6184 112.852L63.876 89.3309L51.5612 111.5L36.4591 92.1758L42.3667 72.3644L35.3891 90.8238L22.9077 74.8056L34.6779 91.3236L15.0459 92.746H35.7159L49.985 112.692L25.2399 118.234L50.9845 114.082L55.3094 120.131C55.6426 119.9 55.9694 119.657 56.2833 119.452Z" fill="#FFE1AD"/>
<path d="M70.1481 78.2333L61.1395 32.6133L50.8878 34.6316L40.6361 36.6499L49.6448 82.2699L30.1025 122.38C29.2749 124.079 28.9379 125.975 29.1294 127.856C29.321 129.736 30.0334 131.526 31.1866 133.023C32.3398 134.52 33.8881 135.666 35.6571 136.332C37.4261 136.997 39.3457 137.156 41.1999 136.79L69.9175 131.119L98.6799 125.423C100.533 125.056 102.248 124.18 103.63 122.892C105.013 121.604 106.009 119.957 106.506 118.134C107.003 116.311 106.982 114.386 106.445 112.574C105.908 110.763 104.876 109.137 103.466 107.88L70.1481 78.2333Z" fill="#AAE0FE"/>
<path d="M60.6977 30.3706L40.2391 34.4393C39.9446 34.4973 39.6644 34.6128 39.4146 34.7791C39.1647 34.9455 38.9501 35.1594 38.7829 35.4087C38.6157 35.658 38.4992 35.9378 38.4402 36.2321C38.3811 36.5264 38.3806 36.8294 38.4387 37.1239C38.4967 37.4184 38.6122 37.6986 38.7786 37.9485C38.9449 38.1983 39.1588 38.413 39.4081 38.5802C39.6574 38.7473 39.9372 38.8638 40.2315 38.9229C40.5258 38.9819 40.8288 38.9824 41.1233 38.9244L61.5883 34.8493C61.8828 34.7913 62.163 34.6758 62.4128 34.5094C62.6627 34.3431 62.8773 34.1292 63.0445 33.8799C63.2117 33.6306 63.3282 33.3508 63.3872 33.0565C63.4463 32.7622 63.4468 32.4592 63.3887 32.1647C63.3307 31.8702 63.2152 31.59 63.0488 31.3401C62.8825 31.0903 62.6686 30.8756 62.4193 30.7084C62.17 30.5412 61.8902 30.4248 61.5959 30.3657C61.3016 30.3067 60.9986 30.3061 60.7041 30.3642L60.6977 30.3706Z" fill="#AAE0FE"/>
<path d="M101.217 116.722C101.464 115.884 101.463 114.993 101.215 114.155C100.968 113.317 100.483 112.569 99.8204 112L88.4986 101.921C81.3183 106.131 73.1131 108.271 64.7916 108.104C59.1083 107.957 53.4635 106.727 47.7802 107.015C46.3296 107.092 44.8851 107.258 43.4553 107.515L35.0745 124.783C34.6934 125.566 34.5388 126.441 34.6282 127.308C34.7175 128.174 35.0472 128.999 35.5801 129.688C36.1131 130.378 36.828 130.905 37.6443 131.21C38.4607 131.515 39.3459 131.585 40.2004 131.414L97.6355 120.073C98.4934 119.923 99.2889 119.526 99.925 118.931C100.561 118.336 101.01 117.568 101.217 116.722V116.722Z" fill="#FF9A30"/>
<path d="M48.6641 40.347C48.2378 40.4313 47.8322 40.5988 47.4707 40.8399C47.1091 41.081 46.7987 41.3911 46.5571 41.7523C46.3155 42.1135 46.1475 42.5188 46.0626 42.9451C45.9778 43.3713 45.9778 43.81 46.0627 44.2362L52.8545 78.6499C53.0464 79.4896 53.5579 80.2215 54.2804 80.6905C55.0029 81.1594 55.8797 81.3284 56.7248 81.1618C57.5699 80.9951 58.3168 80.5058 58.8071 79.7976C59.2975 79.0895 59.4928 78.2181 59.3515 77.3684L52.5533 42.9548C52.383 42.0934 51.8777 41.3349 51.1484 40.8459C50.4192 40.3569 49.5256 40.1775 48.6641 40.347V40.347Z" fill="white"/>
<path d="M43.3762 22.4904C44.1273 19.3081 42.1564 16.1194 38.9742 15.3684C35.7919 14.6173 32.6032 16.5881 31.8522 19.7704C31.1011 22.9527 33.0719 26.1413 36.2542 26.8924C39.4365 27.6435 42.6251 25.6726 43.3762 22.4904Z" fill="#AAE0FE"/>
<path d="M52.9767 26.2638C52.9767 26.7529 52.8317 27.2311 52.5599 27.6378C52.2881 28.0445 51.9019 28.3615 51.45 28.5487C50.998 28.7359 50.5008 28.7849 50.021 28.6895C49.5412 28.594 49.1005 28.3585 48.7547 28.0126C48.4088 27.6667 48.1732 27.226 48.0778 26.7463C47.9824 26.2665 48.0313 25.7692 48.2185 25.3173C48.4057 24.8654 48.7227 24.4791 49.1294 24.2073C49.5362 23.9356 50.0143 23.7905 50.5035 23.7905C50.8285 23.7897 51.1505 23.8531 51.451 23.9771C51.7514 24.1011 52.0244 24.2832 52.2542 24.513C52.484 24.7429 52.6662 25.0159 52.7902 25.3163C52.9142 25.6167 52.9776 25.9387 52.9767 26.2638Z" fill="#AAE0FE"/>
<path d="M192.903 202.226L208.255 213.879L253.746 153.947L238.394 142.295L192.903 202.226Z" fill="#E0422D"/>
<path d="M253.762 153.949L261.208 144.133C261.863 143.268 262.149 142.178 262.001 141.102C261.853 140.027 261.284 139.054 260.42 138.398L251.597 131.696C251.167 131.367 250.677 131.127 250.154 130.988C249.631 130.85 249.085 130.816 248.549 130.89C248.013 130.963 247.497 131.142 247.03 131.415C246.564 131.689 246.156 132.052 245.83 132.484L238.43 142.294L253.762 153.949Z" fill="#FFE5B2"/>
<path d="M238.392 142.296L253.744 153.948L255.917 151.085L240.566 139.432L238.392 142.296Z" fill="#6593C7"/>
<path d="M197.006 205.341L204.156 210.768L249.647 150.836L242.497 145.409L197.006 205.341Z" fill="#FF9A30"/>
<path d="M184.063 229.824L208.27 213.876L200.594 208.046L192.918 202.221L184.063 229.824Z" fill="#FFE5B2"/>
<path d="M184.063 229.824L190.426 225.627L186.389 222.565L184.063 229.824Z" fill="#003672"/>
<path d="M130.864 54.3021L123.816 91.6567C122.778 98.2883 136.419 106.394 154.462 109.764C172.505 113.134 188.158 110.603 189.6 104.048L196.648 66.6939L130.864 54.3021Z" fill="#003672"/>
<path d="M158.012 91.0801C160.94 91.6311 163.778 92.022 166.553 92.2654C167.31 92.3352 168.045 92.5625 168.709 92.9328C169.374 93.3031 169.954 93.8082 170.412 94.4157C170.869 95.0232 171.195 95.7197 171.368 96.4605C171.541 97.2013 171.557 97.9701 171.416 98.7176L169.051 111.27C180.296 111.385 188.594 108.739 189.625 104.055L193.732 82.27L196.661 66.7259L130.864 54.3021L127.353 72.9602C126.302 79.5982 139.962 87.6778 158.012 91.0801Z" fill="#002854"/>
<path d="M163.977 41.1801L102.031 45.7806C101.161 45.8416 100.335 46.1893 99.6836 46.7692C99.0319 47.3491 98.5906 48.1286 98.4288 48.9858C98.267 49.8431 98.3938 50.7298 98.7894 51.5073C99.1849 52.2849 99.8269 52.9095 100.615 53.2835L156.647 80.1045C158.708 81.0915 160.993 81.5202 163.272 81.3475L225.224 76.7279C226.093 76.6629 226.916 76.3127 227.566 75.7316C228.215 75.1506 228.654 74.3713 228.815 73.5149C228.976 72.6585 228.849 71.773 228.455 70.996C228.06 70.219 227.42 69.5942 226.634 69.2185L170.602 42.4039C168.539 41.4235 166.254 41.0015 163.977 41.1801V41.1801Z" fill="#003672"/>
<path d="M193.047 120.605C190.062 120.041 186.698 124.597 185.532 130.774C185.333 131.812 187.601 133.112 190.587 133.676C193.573 134.24 196.155 133.849 196.354 132.817C197.513 126.634 196.04 121.169 193.047 120.605Z" fill="#FFBB45"/>
<path d="M196.18 121.502C196.303 120.872 196.236 120.22 195.988 119.628C195.74 119.035 195.322 118.53 194.787 118.176C194.251 117.822 193.623 117.634 192.981 117.638C192.339 117.641 191.712 117.835 191.181 118.195C190.649 118.555 190.236 119.064 189.994 119.659C189.753 120.254 189.693 120.907 189.823 121.536C189.953 122.164 190.266 122.74 190.724 123.191C191.181 123.641 191.762 123.945 192.393 124.065C193.235 124.223 194.105 124.043 194.814 123.563C195.523 123.083 196.014 122.342 196.18 121.502V121.502Z" fill="#003672"/>
<path d="M192.996 120.9C192.766 120.858 192.547 120.77 192.351 120.643C192.155 120.515 191.986 120.35 191.854 120.158C191.721 119.965 191.629 119.748 191.581 119.519C191.533 119.29 191.53 119.054 191.574 118.824L198.974 79.5278L163.145 61.0812C162.726 60.8654 162.41 60.492 162.266 60.0432C162.123 59.5944 162.163 59.107 162.379 58.6881C162.595 58.2692 162.968 57.9532 163.417 57.8096C163.866 57.666 164.353 57.7066 164.772 57.9224L201.781 76.9713C202.124 77.1466 202.401 77.429 202.57 77.7758C202.739 78.1226 202.79 78.515 202.716 78.8935L195.072 119.497C194.979 119.956 194.71 120.36 194.321 120.623C193.933 120.885 193.457 120.985 192.996 120.9V120.9Z" fill="#FFBB45"/>
<path d="M196.059 112.718L133.267 115.505H132.787L69.995 112.718H69.3542C67.9285 112.718 66.5612 113.284 65.553 114.292C64.5449 115.3 63.9785 116.668 63.9785 118.093V183.128C63.978 184.485 64.491 185.792 65.4145 186.787C66.3379 187.782 67.6034 188.39 68.957 188.49C81.9254 189.452 116.858 192.027 132.985 193.078C149.106 192.027 184.039 189.452 197.007 188.49C198.361 188.39 199.626 187.782 200.55 186.787C201.473 185.792 201.986 184.485 201.986 183.128V118.093C201.986 116.668 201.419 115.3 200.411 114.292C199.403 113.284 198.036 112.718 196.61 112.718H196.059Z" fill="#003672"/>
<path d="M72.0449 105.106L67.6943 117.017L67.1689 182.224L72.0449 175.573C72.0449 175.573 85.5259 109.405 72.0449 105.106Z" fill="#FAB45A"/>
<path d="M72.0449 175.573L67.1689 182.224L133.049 188.984V182.91C133.049 182.91 97.4243 161.477 72.0449 175.573Z" fill="#FAB45A"/>
<path d="M194.046 175.573L198.929 182.224L133.049 188.984V182.91C133.049 182.91 168.673 161.477 194.046 175.573Z" fill="#FAB45A"/>
<path d="M133.049 182.91V111.654C133.049 111.654 100.372 89.3823 72.0449 105.106V175.586C72.0449 175.586 94.4961 165.886 133.049 182.91Z" fill="#FFEDCC"/>
<path d="M194.046 105.106L198.403 117.017L198.929 182.224L194.046 175.573C194.046 175.573 180.565 109.405 194.046 105.106Z" fill="#FAB45A"/>
<path d="M133.049 182.91V111.654C133.049 111.654 165.726 89.3823 194.046 105.106V175.586C194.046 175.586 171.602 165.886 133.049 182.91Z" fill="#FFEDCC"/>
<path d="M133.049 119.798L135.637 182.91L133.049 183.48V119.798Z" fill="#FAB45A"/>
<path d="M126.565 117.017C126.472 117.016 126.381 116.99 126.302 116.94C119.351 112.708 111.617 109.922 103.563 108.749C95.5099 107.577 87.3025 108.042 79.4329 110.116C79.3622 110.131 79.2891 110.131 79.2182 110.117C79.1472 110.103 79.0798 110.075 79.02 110.034C78.9602 109.994 78.9092 109.942 78.8701 109.881C78.8309 109.82 78.8045 109.752 78.7922 109.681C78.754 109.531 78.7746 109.373 78.8497 109.238C78.9248 109.103 79.0487 109.003 79.1959 108.956C87.1974 106.843 95.5435 106.368 103.733 107.561C111.923 108.753 119.787 111.588 126.853 115.896C126.981 115.983 127.072 116.113 127.111 116.263C127.15 116.412 127.134 116.571 127.065 116.709C127.02 116.803 126.949 116.882 126.86 116.936C126.771 116.991 126.669 117.019 126.565 117.017V117.017Z" fill="#6593C7"/>
<path d="M126.564 123.988C126.471 123.987 126.38 123.961 126.302 123.911C119.351 119.677 111.617 116.891 103.563 115.719C95.5087 114.548 87.301 115.015 79.4322 117.094C79.361 117.108 79.2878 117.107 79.2168 117.092C79.1458 117.078 79.0785 117.049 79.0188 117.007C78.9591 116.966 78.9083 116.914 78.8692 116.853C78.8302 116.791 78.8037 116.723 78.7914 116.652C78.762 116.503 78.7865 116.348 78.8604 116.216C78.9343 116.083 79.0529 115.981 79.1951 115.928C87.1935 113.817 95.5355 113.344 103.721 114.535C111.907 115.726 119.768 118.558 126.833 122.86C126.962 122.948 127.055 123.08 127.094 123.231C127.133 123.382 127.115 123.542 127.045 123.681C127 123.77 126.932 123.846 126.847 123.9C126.762 123.955 126.665 123.985 126.564 123.988V123.988Z" fill="#6593C7"/>
<path d="M126.565 130.953C126.472 130.952 126.381 130.926 126.302 130.876C119.351 126.643 111.617 123.858 103.563 122.686C95.5093 121.515 87.302 121.982 79.4329 124.059C79.3618 124.073 79.2886 124.072 79.2176 124.057C79.1466 124.042 79.0793 124.014 79.0196 123.972C78.9599 123.931 78.9091 123.878 78.87 123.817C78.831 123.756 78.8045 123.688 78.7922 123.617C78.754 123.467 78.7746 123.309 78.8497 123.174C78.9248 123.039 79.0487 122.939 79.1959 122.893C87.1976 120.781 95.5434 120.307 103.733 121.5C111.922 122.692 119.786 125.526 126.853 129.832C126.981 129.919 127.072 130.049 127.111 130.199C127.15 130.349 127.134 130.507 127.065 130.645C127.02 130.739 126.949 130.818 126.86 130.872C126.771 130.927 126.669 130.955 126.565 130.953V130.953Z" fill="#6593C7"/>
<path d="M126.565 137.924C126.472 137.923 126.381 137.897 126.302 137.847C119.351 133.614 111.617 130.829 103.563 129.657C95.5093 128.486 87.302 128.953 79.4329 131.03C79.3618 131.043 79.2886 131.043 79.2176 131.028C79.1466 131.013 79.0793 130.984 79.0196 130.943C78.9599 130.902 78.9091 130.849 78.87 130.788C78.831 130.727 78.8045 130.659 78.7922 130.588C78.754 130.438 78.7746 130.28 78.8497 130.145C78.9248 130.01 79.0487 129.91 79.1959 129.863C87.1974 127.75 95.5435 127.275 103.733 128.468C111.923 129.66 119.787 132.495 126.853 136.803C126.981 136.89 127.072 137.02 127.111 137.17C127.15 137.319 127.134 137.478 127.065 137.616C127.02 137.71 126.949 137.789 126.86 137.843C126.771 137.898 126.669 137.926 126.565 137.924V137.924Z" fill="#6593C7"/>
<path d="M126.566 144.895C126.473 144.894 126.382 144.868 126.303 144.818C119.353 140.583 111.619 137.796 103.565 136.623C95.5105 135.45 87.3026 135.917 79.4334 137.994C79.3626 138.008 79.2899 138.008 79.2193 137.994C79.1486 137.979 79.0816 137.951 79.022 137.91C78.9624 137.87 78.9114 137.818 78.8721 137.758C78.8327 137.697 78.8057 137.63 78.7926 137.559C78.7616 137.409 78.7852 137.253 78.8592 137.119C78.9333 136.985 79.0528 136.882 79.1963 136.828C87.198 134.716 95.5438 134.242 103.733 135.435C111.923 136.627 119.787 139.461 126.854 143.767C126.983 143.855 127.075 143.987 127.114 144.138C127.153 144.289 127.136 144.449 127.065 144.588C127.019 144.68 126.947 144.758 126.859 144.812C126.771 144.867 126.669 144.895 126.566 144.895V144.895Z" fill="#6593C7"/>
<path d="M126.565 151.86C126.472 151.862 126.38 151.835 126.302 151.783C119.308 147.555 111.536 144.773 103.447 143.601C103.296 143.573 103.162 143.487 103.073 143.361C102.985 143.235 102.949 143.08 102.973 142.928C102.979 142.851 103 142.776 103.036 142.708C103.071 142.64 103.121 142.579 103.181 142.531C103.241 142.483 103.311 142.448 103.385 142.428C103.46 142.408 103.538 142.404 103.614 142.416C111.842 143.609 119.746 146.442 126.86 150.745C126.987 150.832 127.079 150.963 127.118 151.112C127.156 151.262 127.14 151.42 127.071 151.559C127.025 151.652 126.952 151.73 126.862 151.784C126.773 151.837 126.669 151.864 126.565 151.86V151.86Z" fill="#6593C7"/>
<path d="M126.564 158.831C126.47 158.827 126.379 158.796 126.301 158.741C119.141 154.409 111.165 151.597 102.87 150.482C102.719 150.453 102.585 150.367 102.496 150.241C102.407 150.116 102.368 149.962 102.389 149.81C102.395 149.732 102.416 149.657 102.452 149.589C102.487 149.52 102.537 149.46 102.597 149.411C102.657 149.362 102.727 149.326 102.801 149.306C102.876 149.285 102.954 149.28 103.03 149.291C111.466 150.427 119.578 153.288 126.859 157.697C126.986 157.784 127.078 157.915 127.117 158.064C127.156 158.214 127.139 158.372 127.07 158.511C127.027 158.608 126.955 158.69 126.865 158.747C126.775 158.804 126.671 158.833 126.564 158.831V158.831Z" fill="#6593C7"/>
<path d="M126.565 165.789C126.472 165.789 126.381 165.762 126.302 165.713C119.029 161.306 110.914 158.469 102.48 157.383C102.334 157.356 102.203 157.276 102.114 157.157C102.025 157.038 101.984 156.89 101.999 156.742C102.005 156.665 102.026 156.59 102.062 156.521C102.097 156.452 102.147 156.391 102.206 156.342C102.266 156.293 102.336 156.256 102.41 156.235C102.485 156.213 102.563 156.207 102.64 156.217C111.214 157.321 119.462 160.202 126.86 164.675C126.989 164.762 127.081 164.894 127.12 165.045C127.159 165.196 127.142 165.356 127.071 165.495C127.022 165.586 126.949 165.662 126.86 165.714C126.77 165.766 126.668 165.792 126.565 165.789V165.789Z" fill="#6593C7"/>
<path d="M126.564 172.767C126.471 172.769 126.379 172.742 126.302 172.69C119.027 168.286 110.913 165.449 102.479 164.361C102.334 164.333 102.204 164.251 102.115 164.133C102.026 164.015 101.985 163.867 101.999 163.72C102.003 163.642 102.024 163.566 102.059 163.497C102.095 163.428 102.144 163.366 102.204 163.317C102.264 163.268 102.334 163.231 102.409 163.21C102.484 163.189 102.562 163.184 102.639 163.194C111.214 164.295 119.463 167.176 126.859 171.652C126.986 171.739 127.078 171.87 127.117 172.019C127.156 172.169 127.139 172.328 127.07 172.466C127.024 172.559 126.951 172.637 126.862 172.691C126.772 172.744 126.669 172.771 126.564 172.767V172.767Z" fill="#6593C7"/>
<path d="M186.787 110.135H186.659C178.011 107.863 168.966 107.539 160.178 109.187C160.103 109.2 160.027 109.197 159.954 109.179C159.881 109.161 159.812 109.128 159.752 109.083C159.692 109.037 159.642 108.98 159.605 108.914C159.568 108.848 159.545 108.775 159.537 108.7C159.507 108.549 159.536 108.392 159.62 108.263C159.704 108.133 159.835 108.042 159.986 108.008C168.917 106.33 178.109 106.661 186.896 108.976C187.043 109.022 187.167 109.123 187.241 109.258C187.315 109.393 187.334 109.551 187.294 109.7C187.269 109.818 187.205 109.924 187.114 110.003C187.023 110.082 186.908 110.128 186.787 110.135Z" fill="#6593C7"/>
<path d="M186.787 117.094H186.659C177.99 114.812 168.921 114.493 160.113 116.158C160.039 116.17 159.962 116.167 159.889 116.148C159.816 116.129 159.747 116.096 159.687 116.049C159.627 116.003 159.577 115.945 159.54 115.879C159.503 115.813 159.48 115.74 159.473 115.665C159.444 115.514 159.474 115.358 159.558 115.229C159.641 115.1 159.771 115.008 159.921 114.973C168.878 113.282 178.1 113.608 186.915 115.928C187.062 115.974 187.185 116.075 187.259 116.21C187.334 116.345 187.352 116.503 187.312 116.652C187.287 116.774 187.221 116.883 187.126 116.963C187.031 117.044 186.911 117.089 186.787 117.094V117.094Z" fill="#6593C7"/>
<path d="M186.786 124.078H186.658C177.958 121.784 168.855 121.469 160.017 123.155C159.942 123.167 159.867 123.164 159.794 123.145C159.721 123.127 159.652 123.094 159.592 123.048C159.533 123.003 159.483 122.946 159.445 122.88C159.408 122.815 159.385 122.743 159.376 122.668C159.345 122.517 159.375 122.36 159.459 122.231C159.543 122.101 159.674 122.01 159.824 121.976C168.811 120.263 178.067 120.582 186.915 122.912C187.062 122.958 187.185 123.059 187.259 123.194C187.333 123.329 187.352 123.487 187.312 123.636C187.286 123.758 187.221 123.867 187.125 123.947C187.03 124.027 186.911 124.073 186.786 124.078V124.078Z" fill="#6593C7"/>
<path d="M186.787 131.043H186.659C177.963 128.75 168.865 128.433 160.03 130.113C159.956 130.126 159.88 130.123 159.806 130.105C159.733 130.087 159.664 130.055 159.604 130.009C159.544 129.963 159.494 129.906 159.457 129.84C159.42 129.774 159.397 129.702 159.39 129.626C159.361 129.476 159.391 129.319 159.475 129.19C159.558 129.061 159.688 128.97 159.838 128.935C168.821 127.226 178.073 127.548 186.915 129.876C187.062 129.922 187.186 130.023 187.26 130.158C187.334 130.293 187.353 130.452 187.313 130.6C187.288 130.723 187.223 130.833 187.127 130.913C187.032 130.994 186.912 131.039 186.787 131.043V131.043Z" fill="#6593C7"/>
<path d="M139.527 144.895C139.426 144.892 139.328 144.862 139.244 144.807C139.159 144.753 139.091 144.677 139.046 144.588C138.975 144.449 138.958 144.289 138.997 144.138C139.036 143.987 139.128 143.855 139.257 143.767C146.326 139.462 154.191 136.627 162.381 135.435C170.572 134.243 178.919 134.717 186.921 136.828C187.069 136.876 187.192 136.978 187.266 137.114C187.34 137.25 187.359 137.409 187.319 137.559C187.306 137.63 187.279 137.697 187.239 137.758C187.2 137.818 187.149 137.87 187.089 137.91C187.03 137.951 186.963 137.979 186.892 137.994C186.821 138.008 186.749 138.008 186.678 137.994C178.81 135.917 170.603 135.45 162.55 136.623C154.497 137.795 146.764 140.583 139.815 144.818C139.728 144.872 139.628 144.898 139.527 144.895V144.895Z" fill="#6593C7"/>
<path d="M139.527 152.116C139.426 152.113 139.328 152.083 139.244 152.029C139.159 151.975 139.091 151.899 139.046 151.809C138.975 151.67 138.958 151.51 138.997 151.359C139.036 151.208 139.128 151.076 139.257 150.989C146.326 146.683 154.191 143.849 162.381 142.656C170.572 141.464 178.919 141.938 186.921 144.05C187.069 144.097 187.192 144.199 187.266 144.335C187.34 144.471 187.359 144.63 187.319 144.78C187.306 144.851 187.28 144.919 187.241 144.98C187.202 145.041 187.151 145.093 187.091 145.134C187.031 145.175 186.964 145.203 186.893 145.217C186.822 145.231 186.749 145.23 186.678 145.216C178.81 143.138 170.603 142.671 162.55 143.844C154.497 145.016 146.764 147.804 139.815 152.039C139.728 152.093 139.628 152.119 139.527 152.116V152.116Z" fill="#6593C7"/>
<path d="M139.527 159.081C139.426 159.079 139.328 159.049 139.243 158.995C139.158 158.941 139.09 158.864 139.046 158.773C138.978 158.635 138.961 158.476 139 158.327C139.039 158.177 139.131 158.047 139.258 157.96C146.329 153.659 154.195 150.831 162.385 149.644C170.576 148.457 178.921 148.936 186.922 151.052C187.069 151.098 187.192 151.2 187.266 151.335C187.34 151.469 187.359 151.628 187.319 151.777C187.307 151.848 187.28 151.916 187.241 151.977C187.202 152.038 187.151 152.091 187.092 152.132C187.032 152.173 186.965 152.202 186.894 152.217C186.823 152.232 186.75 152.232 186.678 152.219C178.81 150.141 170.603 149.674 162.55 150.847C154.497 152.019 146.764 154.807 139.815 159.042C139.725 159.083 139.625 159.096 139.527 159.081V159.081Z" fill="#6593C7"/>
<path d="M139.527 166.052C139.426 166.05 139.328 166.021 139.243 165.966C139.158 165.912 139.09 165.835 139.046 165.744C138.978 165.606 138.961 165.448 139 165.298C139.039 165.149 139.131 165.018 139.258 164.931C146.326 160.625 154.192 157.791 162.382 156.598C170.572 155.406 178.919 155.88 186.922 157.992C187.069 158.038 187.192 158.139 187.266 158.274C187.34 158.409 187.359 158.567 187.319 158.716C187.307 158.787 187.28 158.855 187.241 158.916C187.202 158.978 187.151 159.03 187.092 159.071C187.032 159.113 186.965 159.141 186.894 159.156C186.823 159.171 186.75 159.172 186.678 159.158C178.811 157.08 170.604 156.614 162.551 157.785C154.499 158.956 146.765 161.742 139.815 165.975C139.729 166.028 139.629 166.055 139.527 166.052V166.052Z" fill="#6593C7"/>
<path d="M139.527 173.023C139.426 173.02 139.328 172.99 139.244 172.936C139.159 172.882 139.091 172.806 139.046 172.716C138.975 172.577 138.958 172.417 138.997 172.266C139.036 172.115 139.128 171.983 139.257 171.896C146.326 167.59 154.191 164.756 162.381 163.563C170.572 162.371 178.919 162.845 186.921 164.956C187.069 165.004 187.192 165.106 187.266 165.242C187.34 165.378 187.359 165.537 187.319 165.687C187.306 165.758 187.279 165.825 187.239 165.886C187.2 165.946 187.149 165.998 187.089 166.039C187.03 166.079 186.963 166.107 186.892 166.122C186.821 166.136 186.749 166.137 186.678 166.123C178.81 164.045 170.603 163.578 162.55 164.751C154.497 165.923 146.764 168.711 139.815 172.946C139.728 173 139.628 173.026 139.527 173.023V173.023Z" fill="#6593C7"/>
<path d="M79.3047 142.281V165.2C85.8932 164.007 92.5917 163.532 99.2827 163.784V140.481C99.2827 140.481 91.4465 139.68 79.3047 142.281Z" fill="#6593C7"/>
<path d="M139.526 115.498V138.046C143.957 134.888 148.937 132.585 154.212 131.254V109.54C148.977 110.556 143.99 112.58 139.526 115.498V115.498Z" fill="#6593C7"/>
<path d="M71.2069 192.259L66.7549 195.025L72.5332 204.326L76.9852 201.561L71.2069 192.259Z" fill="#6593C7"/>
<path d="M83.1794 173.139C83.2969 158.178 71.2639 145.954 56.3029 145.837C41.3419 145.719 29.1184 157.752 29.0008 172.713C28.8833 187.674 40.9164 199.898 55.8774 200.015C70.8383 200.133 83.0619 188.1 83.1794 173.139Z" fill="#003672"/>
<path d="M71.9574 188.779C80.7202 180.017 80.7202 165.809 71.9574 157.047C63.1947 148.284 48.9875 148.284 40.2247 157.047C31.462 165.809 31.462 180.017 40.2247 188.779C48.9875 197.542 63.1947 197.542 71.9574 188.779Z" fill="#AAE0FE"/>
<path d="M75.1525 161.074C73.5983 158.569 71.5658 156.396 69.1712 154.678C66.7765 152.96 64.0667 151.731 61.1967 151.061C58.3266 150.391 55.3527 150.293 52.4448 150.773C49.537 151.253 46.7523 152.302 44.25 153.859L67.957 191.976C70.4596 190.42 72.6311 188.387 74.3473 185.991C76.0635 183.596 77.2908 180.886 77.959 178.016C78.6272 175.146 78.7233 172.173 78.2418 169.266C77.7602 166.358 76.7104 163.575 75.1525 161.074V161.074Z" fill="#8CCDF5"/>
<path d="M46.2818 157.127C51.0532 154.16 56.7645 153.093 62.2854 154.136C67.8063 155.179 72.7345 158.256 76.095 162.759C75.8066 162.189 75.4927 161.631 75.1531 161.074C73.5965 158.57 71.562 156.398 69.166 154.681C66.7699 152.964 64.0591 151.736 61.1883 151.067C55.3906 149.715 49.2933 150.722 44.2378 153.865C39.1823 157.009 35.5828 162.032 34.231 167.83C32.8791 173.628 33.8859 179.725 37.0296 184.781C37.3756 185.332 37.7408 185.864 38.1252 186.37C35.5711 181.36 34.992 175.574 36.5027 170.158C38.0134 164.742 41.5036 160.091 46.2818 157.127V157.127Z" fill="#6593C7"/>
<path d="M76.0943 162.759C75.9534 162.477 75.806 162.201 75.6522 161.926C75.4984 161.65 75.3254 161.356 75.1524 161.074C73.5983 158.569 71.5658 156.396 69.1712 154.678C66.7765 152.96 64.0667 151.731 61.1967 151.061C58.3266 150.391 55.3527 150.293 52.4448 150.773C49.537 151.253 46.7523 152.302 44.25 153.859L46.2811 157.127C51.0526 154.16 56.7639 153.093 62.2847 154.136C67.8056 155.179 72.7339 158.256 76.0943 162.759V162.759Z" fill="#4C77AD"/>
<path d="M75.486 199.415L71.2508 202.042C70.6774 202.401 70.2694 202.973 70.1158 203.632C69.9621 204.291 70.0753 204.984 70.4307 205.56L88.6338 234.854C88.976 235.431 89.4299 235.934 89.9689 236.333C90.5078 236.732 91.121 237.02 91.7725 237.179C92.4241 237.339 93.1009 237.366 93.7633 237.261C94.4257 237.156 95.0604 236.919 95.6303 236.565C96.2002 236.212 96.6937 235.748 97.0821 235.201C97.4705 234.654 97.7458 234.035 97.892 233.38C98.0382 232.726 98.0524 232.049 97.9336 231.388C97.8149 230.728 97.5656 230.098 97.2004 229.536L78.9972 200.235C78.638 199.664 78.0677 199.257 77.4103 199.103C76.7528 198.95 76.0613 199.062 75.486 199.415V199.415Z" fill="#003672"/>
<path d="M72.5766 203.535C72.3039 203.715 72.1103 203.992 72.0352 204.31C71.9602 204.628 72.0095 204.963 72.1729 205.246L89.9148 233.803C90.103 234.04 90.3715 234.201 90.6698 234.254C90.9681 234.308 91.2757 234.25 91.5346 234.093C91.7936 233.936 91.9861 233.689 92.076 233.4C92.1659 233.11 92.147 232.798 92.0228 232.522L74.2809 203.964C74.1978 203.823 74.0876 203.701 73.9567 203.603C73.8258 203.505 73.6768 203.434 73.5183 203.394C73.3598 203.354 73.195 203.346 73.0334 203.37C72.8717 203.394 72.7165 203.45 72.5766 203.535V203.535Z" fill="#4C77AD"/>
<path d="M214.832 19.8501C210.133 19.8463 205.626 21.7084 202.299 25.0272C199.439 23.6404 196.191 23.27 193.091 23.977C189.992 24.684 187.226 26.4263 185.25 28.9165C183.973 28.3067 182.576 27.9893 181.162 27.9874C178.613 27.9874 176.168 29 174.366 30.8024C172.563 32.6048 171.551 35.0494 171.551 37.5984H232.632C232.63 35.2638 232.168 32.9525 231.272 30.7966C230.377 28.6407 229.065 26.6825 227.411 25.0341C225.758 23.3857 223.796 22.0794 221.638 21.1898C219.479 20.3003 217.167 19.8451 214.832 19.8501V19.8501Z" fill="#AAE0FE"/>
<path d="M93.6242 15.2174C92.0899 15.2139 90.5915 15.6813 89.3313 16.5565C87.9433 13.9949 85.7411 11.969 83.0729 10.799C80.4046 9.62902 77.4226 9.38167 74.598 10.0961C71.7735 10.8105 69.2676 12.4459 67.4765 14.7438C65.6854 17.0416 64.7113 19.8709 64.708 22.7844H101.23C101.229 21.7877 101.031 20.8009 100.648 19.8807C100.265 18.9605 99.7044 18.125 98.9979 17.422C98.2913 16.719 97.4529 16.1624 96.5308 15.784C95.6086 15.4057 94.6209 15.2132 93.6242 15.2174Z" fill="#AAE0FE"/>
<path d="M46.332 102.447H60.1974L64.8748 145.376H60.6524L54.4052 110.417C54.3371 110.127 54.1742 109.867 53.9422 109.679C53.7102 109.491 53.4223 109.386 53.1238 109.379C52.7795 109.381 52.449 109.515 52.2008 109.753C51.9526 109.992 51.8059 110.317 51.7911 110.661L50.5673 145.382H46.3513L46.332 102.447Z" fill="#003672"/>
<path d="M61.0504 77.0545H50.6257C49.9821 77.0521 49.3612 77.2921 48.8863 77.7265C48.4115 78.161 48.1175 78.7582 48.0628 79.3995L46.3008 102.466H60.1662L63.5236 79.9826C63.5754 79.6242 63.5505 79.2588 63.4508 78.9107C63.351 78.5625 63.1786 78.2395 62.9449 77.9628C62.7113 77.6862 62.4216 77.4622 62.095 77.3056C61.7685 77.149 61.4125 77.0634 61.0504 77.0545Z" fill="#E0422D"/>
<path d="M53.4185 73.0243L53.2006 77.4774C53.1743 78.0297 53.3684 78.5698 53.7403 78.9789C54.1122 79.3881 54.6314 79.6327 55.1837 79.6591C55.7359 79.6854 56.2761 79.4913 56.6852 79.1194C57.0944 78.7475 57.339 78.2283 57.3654 77.676L57.5832 73.2293L53.4185 73.0243Z" fill="#F8C79F"/>
<path d="M53.2578 76.5675C53.9976 76.4764 54.7191 76.2733 55.3979 75.9652C56.1885 75.6031 56.9104 75.1066 57.5315 74.498L57.5956 73.2165L53.4308 73.0115L53.2578 76.5675Z" fill="#D9A275"/>
<path d="M49.5617 63.1572C50.6381 61.7283 52.9576 61.1453 54.9054 61.5489C56.5457 61.8949 58.5384 63.0546 59.2175 64.3938C59.7621 65.483 59.6404 67.0464 59.4162 68.3919C59.5296 68.3658 59.6457 68.3529 59.7621 68.3535C60.0105 68.3322 60.2587 68.3952 60.4668 68.5324C60.6749 68.6696 60.8307 68.8729 60.9091 69.1095C61.1333 70.2949 59.9928 71.1727 59.083 71.224C58.9556 71.2433 58.8259 71.2433 58.6985 71.224C58.4041 72.0727 57.9308 72.8483 57.3107 73.4983C56.6905 74.1483 55.938 74.6575 55.104 74.9914C54.5513 75.2192 53.9559 75.3245 53.3586 75.3002C52.7613 75.2759 52.1764 75.1224 51.6441 74.8505C50.9544 74.3864 50.4648 73.6795 50.2729 72.8706C50.0828 72.2281 49.99 71.5608 49.9974 70.8908C50.0359 70.4067 50.0359 69.9204 49.9974 69.4363C49.8752 68.8691 49.6859 68.3185 49.4336 67.796C48.8121 66.2903 48.5365 64.5539 49.5617 63.1572Z" fill="#F8C79F"/>
<path d="M53.6882 66.4762C53.899 66.4984 54.1022 66.5675 54.2829 66.6783C54.4636 66.7892 54.6172 66.939 54.7326 67.1169C54.8287 67.3027 54.5275 67.4693 54.4186 67.2771C54.3177 67.1501 54.1916 67.0452 54.0483 66.9691C53.9049 66.8931 53.7474 66.8474 53.5856 66.835C53.4213 66.8 53.2539 66.7807 53.0859 66.7773C52.9449 66.7773 52.8232 66.835 52.6886 66.8286C52.5541 66.8222 52.5861 66.7709 52.6117 66.7133C52.7527 66.3801 53.4126 66.4057 53.6882 66.4762Z" fill="#003672"/>
<path d="M49.2805 66.7197C49.5303 66.4057 50.2928 66.2776 50.5619 66.6364C50.6452 66.7453 50.485 66.8799 50.3697 66.8158C50.2279 66.7448 50.0695 66.7139 49.9114 66.7263C49.7533 66.7387 49.6016 66.794 49.4727 66.8863C49.3573 66.944 49.2036 66.8222 49.2805 66.7197Z" fill="#003672"/>
<path d="M54.0341 69.9168C54.1251 69.8605 54.2246 69.8194 54.3288 69.7951C54.3611 69.7808 54.3959 69.7736 54.4311 69.7738C54.4664 69.774 54.5011 69.7817 54.5332 69.7962C54.5652 69.8108 54.5939 69.832 54.6171 69.8584C54.6404 69.8848 54.6579 69.9159 54.6683 69.9495C54.6788 69.9831 54.682 70.0186 54.6778 70.0536C54.6736 70.0885 54.662 70.1222 54.6439 70.1524C54.6258 70.1826 54.6014 70.2086 54.5725 70.2287C54.5436 70.2489 54.5108 70.2627 54.4762 70.2692C54.3883 70.3017 54.2924 70.3062 54.2018 70.2821C54.1112 70.258 54.0303 70.2065 53.97 70.1347C53.8995 70.0578 53.9636 69.9617 54.0341 69.9168Z" fill="#DD675B"/>
<path d="M50.2538 69.7757C50.2931 69.7719 50.3328 69.7774 50.3695 69.7919C50.4063 69.8064 50.4391 69.8294 50.4652 69.859C50.6254 70.0064 50.382 70.2242 50.2218 70.0833C50.0616 69.9423 50.1193 69.9807 50.1257 69.891C50.1301 69.8599 50.1454 69.8312 50.1688 69.8102C50.1923 69.7891 50.2223 69.7769 50.2538 69.7757Z" fill="#DD675B"/>
<path d="M54.1231 69.0388C54.2081 69.0388 54.2896 69.0726 54.3496 69.1327C54.4097 69.1927 54.4435 69.2742 54.4435 69.3592C54.4435 69.4442 54.4097 69.5256 54.3496 69.5857C54.2896 69.6458 54.2081 69.6795 54.1231 69.6795C54.0381 69.6795 53.9566 69.6458 53.8966 69.5857C53.8365 69.5256 53.8027 69.4442 53.8027 69.3592C53.8027 69.2742 53.8365 69.1927 53.8966 69.1327C53.9566 69.0726 54.0381 69.0388 54.1231 69.0388Z" fill="#003672"/>
<path d="M50.657 68.8726C50.6957 68.8726 50.7341 68.8802 50.7698 68.895C50.8056 68.9098 50.8381 68.9315 50.8654 68.9589C50.8928 68.9862 50.9145 69.0187 50.9293 69.0545C50.9442 69.0903 50.9518 69.1286 50.9518 69.1673C50.9518 69.206 50.9442 69.2443 50.9293 69.2801C50.9145 69.3158 50.8928 69.3483 50.8654 69.3757C50.8381 69.4031 50.8056 69.4248 50.7698 69.4396C50.7341 69.4544 50.6957 69.462 50.657 69.462C50.6183 69.462 50.58 69.4544 50.5442 69.4396C50.5085 69.4248 50.476 69.4031 50.4486 69.3757C50.4213 69.3483 50.3995 69.3158 50.3847 69.2801C50.3699 69.2443 50.3623 69.206 50.3623 69.1673C50.3623 69.1286 50.3699 69.0903 50.3847 69.0545C50.3995 69.0187 50.4213 68.9862 50.4486 68.9589C50.476 68.9315 50.5085 68.9098 50.5442 68.895C50.58 68.8802 50.6183 68.8726 50.657 68.8726V68.8726Z" fill="#003672"/>
<path d="M51.0674 70.6794C51.5223 70.737 51.6697 69.9361 51.7081 69.6478C51.7152 69.6008 51.7375 69.5574 51.7716 69.5242C51.8057 69.4911 51.8497 69.47 51.8969 69.4642C51.9441 69.4583 51.9919 69.4681 52.033 69.492C52.0741 69.516 52.1063 69.5526 52.1246 69.5965C52.3809 70.2373 52.0028 71.4226 51.0674 71.365C50.574 71.3329 50.5868 70.6281 51.0674 70.6794Z" fill="#DD675B"/>
<path d="M54.0469 71.0317C54.0917 70.9805 54.1686 70.9164 54.2327 70.9484C54.2512 70.9671 54.2663 70.9887 54.2775 71.0125C54.3834 71.27 54.4026 71.555 54.332 71.8244C54.2615 72.0937 54.1052 72.3328 53.8867 72.5054C53.6446 72.6861 53.3571 72.7961 53.0563 72.8233C52.7554 72.8504 52.4529 72.7936 52.1823 72.6592C51.8043 72.467 51.7979 72.0761 52.24 72.0184C52.697 71.9615 53.1352 71.8016 53.5215 71.5507C53.7229 71.4065 53.9002 71.2314 54.0469 71.0317V71.0317Z" fill="white"/>
<path d="M59.6666 60.7096C53.9385 55.9426 51.0488 64.2336 49.7993 64.9577C49.7289 65.0025 49.6584 65.0281 49.5879 65.073C50.1105 65.1647 50.6399 65.2118 51.1705 65.2139C52.867 65.1539 54.5516 64.9068 56.1938 64.4771C56.11 65.5756 56.2534 66.6795 56.615 67.7201C56.9765 68.7608 57.5486 69.7158 58.2954 70.5256C58.6542 69.1032 58.9362 68.8277 59.3078 68.6034C59.5154 68.4609 59.7685 68.4004 60.0182 68.4335C60.2679 68.4667 60.4964 68.5911 60.6597 68.7828C61.8515 66.9824 63.5879 60.1842 59.6666 60.7096Z" fill="#003672"/>
<path d="M55.5909 57.9289C53.854 57.5613 52.0422 57.8805 50.5355 58.8195C48.3314 60.2163 47.1012 62.7536 45.0188 64.3234L47.0563 63.971L44.9932 65.0026C47.1425 65.3492 49.3216 65.4759 51.4966 65.3806C53.1017 65.3651 54.6907 65.059 56.1867 64.4772C57.4947 63.9589 58.5958 63.0245 59.3199 61.8182C60.0247 60.5367 58.8586 59.5307 57.8334 58.8644C57.1477 58.4212 56.3882 58.1043 55.5909 57.9289Z" fill="#003672"/>
<path d="M43.417 92.3616C41.9817 92.2655 41.2513 90.3753 41.1104 89.3245L39.6943 78.5794L42.4751 78.2014L44.3973 86.5309L48.4531 78.4705L51.9131 82.8595C51.9131 82.8595 46.9987 92.5986 43.417 92.3616Z" fill="#E0422D"/>
<path d="M42.4753 78.2013L41.7769 75.0938C41.7084 74.8268 41.5526 74.5904 41.3344 74.4221C41.1161 74.2538 40.8479 74.1632 40.5723 74.1647H37.5993C37.4931 74.1638 37.3877 74.1841 37.2894 74.2244C37.191 74.2647 37.1017 74.3241 37.0266 74.3993C36.9514 74.4744 36.892 74.5637 36.8517 74.6621C36.8115 74.7604 36.7912 74.8658 36.792 74.972V77.1954C36.7914 77.3714 36.8488 77.5427 36.9554 77.6829C37.0619 77.823 37.2117 77.9242 37.3815 77.9706L39.6945 78.6114L42.4753 78.2013Z" fill="#F8C79F"/>
<path d="M40.9186 72.8384L39.0477 80.0466L37.0742 79.3546L38.9964 72.7039L40.9186 72.8384Z" fill="#A33021"/>
<path d="M26.123 64.054V79.1688L41.3468 72.9729C41.6168 72.8626 41.848 72.6746 42.0111 72.4328C42.1742 72.191 42.2619 71.9063 42.2631 71.6146C42.2619 71.3229 42.1742 71.0381 42.0111 70.7963C41.848 70.5545 41.6168 70.3666 41.3468 70.2562L26.123 64.054Z" fill="#E0422D"/>
<path d="M26.1231 79.1752C27.3723 79.1752 28.3849 75.7902 28.3849 71.6146C28.3849 67.439 27.3723 64.054 26.1231 64.054C24.874 64.054 23.8613 67.439 23.8613 71.6146C23.8613 75.7902 24.874 79.1752 26.1231 79.1752Z" fill="#A33021"/>
<path d="M40.7709 74.6389H38.144L37.4199 77.6055H38.6245L39.1691 75.7858L40.3288 76.5739L40.7709 74.6389Z" fill="#F8C79F"/>
<path d="M57.8525 77.6057L70.7505 75.376L76.3569 62.0808L79.08 62.8112L74.9985 76.9073C74.8491 77.4215 74.5811 77.8934 74.2161 78.2851C73.8511 78.6768 73.3992 78.9774 72.8969 79.1627L59.621 84.013L57.8525 77.6057Z" fill="#E0422D"/>
<path d="M80.9892 56.8651C80.1819 55.7951 78.4263 58.3901 77.3307 60.293C75.8185 55.699 76.3567 62.0999 76.3567 62.0999L79.0798 62.8303C79.0798 62.8303 82.2194 58.4734 80.9892 56.8651Z" fill="#F8C79F"/>
<path d="M50.5481 145.356V149.021C50.5481 149.021 29.2246 158.575 46.3321 145.356H50.5481Z" fill="#E0422D"/>
<path d="M60.6523 145.356L61.1649 148.56C61.1649 148.56 79.272 157.159 64.8748 145.356H60.6523Z" fill="#E0422D"/>
<path d="M149.17 43.3777H128.82V49.3493H149.17V43.3777Z" fill="#FF9A30"/>
<path d="M157.057 29.7236L156.538 28.6728C156.384 28.314 156.198 28.032 156.019 27.6732C155.839 27.3144 155.66 27.0325 155.461 26.7185L154.878 25.8087L154.237 24.9629C154.032 24.6746 153.814 24.4055 153.597 24.1492C153.379 23.8929 153.167 23.611 152.956 23.3675L152.315 22.6243C151.86 22.1565 151.405 21.6824 150.931 21.2467C150.701 21.0225 150.463 20.8046 150.226 20.606C149.989 20.4074 149.752 20.1831 149.509 19.9652C149.022 19.5552 148.535 19.1579 148.029 18.7863C147.779 18.5941 147.529 18.4083 147.266 18.2289L146.875 17.9598L146.459 17.6842C145.177 16.8449 143.614 17.4408 142.941 19.0042C142.606 19.7432 142.529 20.5737 142.723 21.3617C142.917 22.1498 143.371 22.8496 144.011 23.3483L144.082 23.3932L144.383 23.5918L144.697 23.8096C144.908 23.957 145.12 24.1108 145.338 24.271C145.76 24.5849 146.177 24.9117 146.587 25.2641C146.792 25.4307 146.991 25.6101 147.189 25.7895C147.388 25.9689 147.587 26.1483 147.785 26.3341C148.176 26.6993 148.548 27.0902 148.919 27.4682L149.457 28.0705C149.637 28.2627 149.797 28.4806 149.97 28.7112C150.144 28.9159 150.306 29.1298 150.457 29.352C150.611 29.5698 150.777 29.7748 150.925 29.9927L151.348 30.6334C151.441 30.7691 151.527 30.9103 151.604 31.0563C151.495 31.2229 151.38 31.3831 151.264 31.5433C151.149 31.7034 150.918 32.043 150.72 32.2801L150.143 33.0041L149.534 33.7089C149.336 33.946 149.124 34.1767 148.894 34.4073C148.663 34.638 148.471 34.8686 148.253 35.0929C147.817 35.5414 147.375 35.9899 146.92 36.4256C146.696 36.6435 146.459 36.8549 146.228 37.0664C145.998 37.2778 145.767 37.4956 145.53 37.7071C145.068 38.1236 144.588 38.5336 144.107 38.9373L143.39 39.5332L142.672 40.097L142.608 40.1483C142.27 40.4534 142.033 40.8538 141.928 41.2965C141.823 41.7392 141.854 42.2035 142.019 42.6279C142.073 42.8455 142.175 43.0482 142.318 43.2208C142.461 43.3935 142.641 43.5317 142.845 43.6253C143.048 43.7188 143.271 43.7653 143.495 43.7613C143.719 43.7572 143.939 43.7027 144.139 43.6018L144.998 43.1149L145.831 42.6151C146.388 42.2819 146.933 41.9744 147.478 41.5835L148.291 41.0389C148.567 40.8531 148.836 40.6737 149.105 40.475C149.643 40.097 150.182 39.6998 150.713 39.2897C150.982 39.0911 151.239 38.8732 151.508 38.649C151.777 38.4247 152.033 38.2261 152.296 38.0082L153.078 37.3226L153.846 36.5922C154.109 36.3551 154.359 36.0732 154.609 35.8169C154.859 35.5606 155.115 35.2851 155.365 34.984C155.615 34.6828 155.858 34.4137 156.102 34.087L156.819 33.0938C157.132 32.5945 157.317 32.026 157.359 31.4383C157.4 30.8506 157.296 30.2618 157.057 29.7236V29.7236Z" fill="#E0422D"/>
<path d="M144.377 23.5921L144.691 23.81C144.902 23.9574 145.114 24.1111 145.332 24.2713C145.755 24.5853 146.171 24.9121 146.581 25.2645C146.786 25.431 146.985 25.6104 147.183 25.7899C147.382 25.9693 147.581 26.1487 147.779 26.3345C148.17 26.6997 148.542 27.0905 148.913 27.4686L149.452 28.0709C149.599 28.231 149.74 28.404 149.875 28.577C149.234 24.7326 146.453 19.9272 146.453 19.9272C145.204 19.8054 144.576 21.7148 144.262 23.5089L144.377 23.5921Z" fill="#A33021"/>
<path d="M120.933 29.7236L121.413 28.6664C121.573 28.3076 121.759 28.0257 121.938 27.6669C122.118 27.3081 122.291 27.0262 122.496 26.7122L123.079 25.8024C123.278 25.514 123.489 25.2385 123.72 24.9566C123.95 24.6747 124.136 24.3992 124.36 24.1429C124.585 23.8866 124.79 23.6047 125.001 23.3612L125.642 22.6179C126.097 22.1502 126.552 21.6761 127.019 21.2404C127.257 21.0161 127.487 20.7983 127.731 20.5996C127.974 20.401 128.205 20.1767 128.448 19.9589C128.929 19.5488 129.422 19.1516 129.922 18.78C130.172 18.5877 130.428 18.4019 130.684 18.2225L131.082 17.9534L131.498 17.6779C132.78 16.8385 134.337 17.4344 135.016 18.9978C135.695 20.5612 135.214 22.509 133.946 23.342L133.869 23.3868L133.574 23.5854L133.26 23.8033C133.047 23.9485 132.833 24.1023 132.619 24.2646C132.203 24.5786 131.787 24.9053 131.376 25.2577C131.171 25.4243 130.973 25.6037 130.768 25.7831C130.563 25.9625 130.371 26.1419 130.178 26.3278C129.781 26.693 129.416 27.0838 129.044 27.4619L128.506 28.0641C128.32 28.2564 128.166 28.4742 127.993 28.7049C127.82 28.9096 127.657 29.1235 127.506 29.3456C127.346 29.5635 127.186 29.7685 127.039 29.9863L126.616 30.6271C126.52 30.7612 126.434 30.9026 126.36 31.05C126.468 31.2165 126.584 31.3767 126.699 31.5369C126.814 31.6971 127.045 32.0367 127.244 32.2737L127.814 32.9978L128.455 33.7026C128.653 33.9396 128.871 34.1703 129.095 34.401C129.32 34.6316 129.518 34.8623 129.736 35.0866C130.165 35.5351 130.614 35.9836 131.069 36.4193C131.293 36.6371 131.53 36.8486 131.754 37.06L132.453 37.7007C132.921 38.1172 133.401 38.5273 133.875 38.9309L134.599 39.5268L135.317 40.0907L135.375 40.1419C135.714 40.446 135.952 40.8464 136.057 41.2895C136.163 41.7327 136.13 42.1974 135.964 42.6215C135.911 42.839 135.809 43.0416 135.667 43.2142C135.525 43.3869 135.345 43.5252 135.142 43.6189C134.939 43.7125 134.717 43.759 134.493 43.755C134.269 43.7509 134.049 43.6964 133.85 43.5955L132.991 43.1085L132.158 42.6087C131.601 42.2756 131.05 41.968 130.511 41.5772C130.236 41.3978 129.96 41.2183 129.691 41.0325C129.422 40.8467 129.147 40.6673 128.884 40.4687C128.346 40.0907 127.808 39.6934 127.276 39.2833C127.007 39.0847 126.744 38.8669 126.481 38.6426C126.219 38.4184 125.949 38.2197 125.693 38.0019L124.911 37.3163L124.136 36.5859C123.88 36.3488 123.63 36.0669 123.374 35.8106C123.117 35.5543 122.868 35.2788 122.624 34.9776C122.381 34.6765 122.124 34.4074 121.887 34.0806L121.176 33.0683C120.867 32.5725 120.683 32.0089 120.64 31.4261C120.598 30.8433 120.698 30.2589 120.933 29.7236Z" fill="#E0422D"/>
<path d="M133.58 23.5921L133.267 23.81C133.053 23.9552 132.839 24.109 132.626 24.2713C132.209 24.5853 131.793 24.9121 131.383 25.2645C131.178 25.431 130.979 25.6104 130.774 25.7899C130.569 25.9693 130.377 26.1487 130.185 26.3345C129.787 26.6997 129.422 27.0905 129.051 27.4686L128.512 28.0709C128.359 28.231 128.224 28.404 128.083 28.577C128.762 24.7326 131.511 19.9272 131.511 19.9272C132.754 19.8054 133.388 21.7148 133.702 23.5089L133.58 23.5921Z" fill="#A33021"/>
<path d="M144.947 17.2808H132.773C132.32 17.2808 131.884 17.461 131.564 17.7818C131.243 18.1027 131.062 18.5378 131.062 18.9915V40.2061H146.626V18.9915C146.626 18.5433 146.45 18.1129 146.136 17.793C145.822 17.4731 145.395 17.2892 144.947 17.2808V17.2808Z" fill="#E0422D"/>
<path d="M136.772 13.9812V17.7423C136.756 18.0387 136.8 18.3354 136.903 18.614C137.005 18.8927 137.163 19.1476 137.367 19.3631C137.571 19.5787 137.817 19.7503 138.09 19.8676C138.363 19.985 138.657 20.0455 138.953 20.0455C139.25 20.0455 139.544 19.985 139.817 19.8676C140.09 19.7503 140.336 19.5787 140.54 19.3631C140.744 19.1476 140.902 18.8927 141.004 18.614C141.107 18.3354 141.151 18.0387 141.135 17.7423V13.9812H136.772Z" fill="#F8C79F"/>
<path d="M136.771 15.4228C137.105 15.7056 137.46 15.9606 137.835 16.1853C138.477 16.5795 139.171 16.8795 139.898 17.0759C140.314 17.1969 140.747 17.2467 141.18 17.2233V13.9812H136.816L136.771 15.4228Z" fill="#D9A275"/>
<path d="M150.694 27.6669C150.695 27.2868 150.621 26.9104 150.476 26.559C150.331 26.2077 150.118 25.8884 149.85 25.6194C149.581 25.3504 149.263 25.1369 148.912 24.9913C148.56 24.8457 148.184 24.7708 147.804 24.7708H130.562C129.794 24.7708 129.057 25.0759 128.514 25.619C127.971 26.1621 127.666 26.8988 127.666 27.6669L127.794 41.9103H150.822L150.694 27.6669Z" fill="#002854"/>
<path d="M139.181 35.202C140.416 35.202 141.418 34.2009 141.418 32.9659C141.418 31.7309 140.416 30.7297 139.181 30.7297C137.946 30.7297 136.945 31.7309 136.945 32.9659C136.945 34.2009 137.946 35.202 139.181 35.202Z" fill="white"/>
<path d="M151.58 41.9106H127.148V44.7875H151.58V41.9106Z" fill="#002854"/>
<path d="M153.366 45.0116C153.739 45.7026 153.841 46.508 153.651 47.27C153.461 48.032 152.994 48.6958 152.341 49.1315C152.106 49.2835 151.852 49.4021 151.585 49.4839L133.779 55.321L132.036 51.4766L149.176 43.6597C149.915 43.3068 150.761 43.2502 151.54 43.5017C152.319 43.7531 152.973 44.2934 153.366 45.0116V45.0116Z" fill="#FFBB45"/>
<path d="M141.384 47.235L132.036 51.4958L133.779 55.321L149.169 50.2721L141.384 47.235Z" fill="#FF9A30"/>
<path d="M124.239 45.0116C123.867 45.703 123.766 46.5079 123.956 47.2695C124.145 48.0311 124.612 48.6949 125.264 49.1315C125.5 49.2836 125.757 49.4022 126.026 49.4839L143.826 55.321L145.568 51.4766L128.429 43.6597C127.69 43.3068 126.844 43.2502 126.065 43.5017C125.285 43.7531 124.632 44.2934 124.239 45.0116Z" fill="#FFBB45"/>
<path d="M145.569 51.4958H153.745C153.745 51.4958 153.853 55.3402 149.605 55.3402H143.839L145.569 51.4958Z" fill="#E0422D"/>
<path d="M132.069 51.4958H123.862C123.862 51.4958 123.753 55.3402 128.001 55.3402H133.767L132.069 51.4958Z" fill="#E0422D"/>
<path d="M144.794 7.31099C146.351 7.48399 147.806 5.85653 147.607 4.165C147.465 3.17616 146.949 2.2795 146.165 1.65975C145.4 1.09636 144.528 0.69518 143.603 0.480801C141.713 -0.0309267 139.736 -0.135617 137.803 0.173658C135.87 0.482933 134.025 1.19912 132.39 2.27485C132.39 4.35081 132.255 6.59978 132.8 8.61168C133.344 10.6236 134.543 12.5522 136.311 13.3851C137.177 13.7505 138.126 13.8755 139.058 13.7469C139.989 13.6184 140.868 13.2411 141.603 12.6547C143.122 11.5526 144.243 9.23318 144.794 7.31099Z" fill="#003672"/>
<path d="M133.35 6.06133C134.478 8.054 133.683 10.6297 134.471 12.7762C134.795 13.6605 135.375 14.4288 136.136 14.9838C136.897 15.5388 137.805 15.8555 138.747 15.894C139.688 15.9324 140.619 15.6907 141.423 15.1996C142.227 14.7085 142.867 13.99 143.262 13.135C143.858 11.8535 143.851 10.3863 143.871 8.97024C143.89 7.55423 143.986 6.08055 144.729 4.87597C144.973 4.49154 144.499 3.91488 144.153 3.59451C143.799 3.30384 143.392 3.08607 142.954 2.95378C140.483 2.12618 137.794 2.23101 135.394 3.24852C134.828 3.46669 134.31 3.79315 133.869 4.20961C133.446 4.67735 133.055 5.53593 133.35 6.06133Z" fill="#F8C79F"/>
<path d="M136.772 9.13696C136.687 9.13696 136.605 9.17072 136.545 9.2308C136.485 9.29088 136.451 9.37236 136.451 9.45733C136.451 9.54229 136.485 9.62378 136.545 9.68386C136.605 9.74394 136.687 9.77769 136.772 9.77769C136.857 9.77769 136.938 9.74394 136.998 9.68386C137.058 9.62378 137.092 9.54229 137.092 9.45733C137.092 9.37236 137.058 9.29088 136.998 9.2308C136.938 9.17072 136.857 9.13696 136.772 9.13696Z" fill="#003672"/>
<path d="M141.135 9.13696C141.05 9.13696 140.968 9.17072 140.908 9.2308C140.848 9.29088 140.814 9.37236 140.814 9.45733C140.814 9.54229 140.848 9.62378 140.908 9.68386C140.968 9.74394 141.05 9.77769 141.135 9.77769C141.22 9.77769 141.301 9.74394 141.361 9.68386C141.421 9.62378 141.455 9.54229 141.455 9.45733C141.455 9.37236 141.421 9.29088 141.361 9.2308C141.301 9.17072 141.22 9.13696 141.135 9.13696Z" fill="#003672"/>
<path d="M136.01 11.0656C136.364 11.0656 136.651 10.8906 136.651 10.6748C136.651 10.4589 136.364 10.2839 136.01 10.2839C135.656 10.2839 135.369 10.4589 135.369 10.6748C135.369 10.8906 135.656 11.0656 136.01 11.0656Z" fill="#DD675B"/>
<path d="M141.878 11.0656C142.232 11.0656 142.519 10.8906 142.519 10.6748C142.519 10.4589 142.232 10.2839 141.878 10.2839C141.524 10.2839 141.237 10.4589 141.237 10.6748C141.237 10.8906 141.524 11.0656 141.878 11.0656Z" fill="#DD675B"/>
<path d="M139.63 11.6231C139.175 11.6744 139.027 10.8799 138.989 10.5915C138.982 10.5445 138.96 10.5011 138.925 10.4679C138.891 10.4348 138.847 10.4137 138.8 10.4079C138.753 10.4021 138.705 10.4119 138.664 10.4358C138.623 10.4597 138.591 10.4964 138.572 10.5403C138.316 11.181 138.694 12.3664 139.63 12.3023C140.123 12.2702 140.11 11.5654 139.63 11.6231Z" fill="#DD675B"/>
<path d="M138.309 13.6862C137.959 13.6887 137.618 13.574 137.34 13.3604C137.063 13.1467 136.865 12.8465 136.777 12.5073C136.771 12.4682 136.78 12.4282 136.801 12.3949C136.822 12.3616 136.855 12.3375 136.894 12.3271C136.932 12.3168 136.973 12.3209 137.008 12.3388C137.043 12.3567 137.071 12.3871 137.085 12.424C137.169 12.7222 137.358 12.9799 137.617 13.1495C137.876 13.3191 138.188 13.3892 138.495 13.3467C138.537 13.3425 138.579 13.3539 138.613 13.3787C138.647 13.4035 138.671 13.44 138.68 13.4812C138.684 13.5023 138.683 13.5239 138.679 13.5447C138.674 13.5655 138.665 13.5852 138.652 13.6025C138.64 13.6198 138.624 13.6344 138.606 13.6455C138.587 13.6566 138.567 13.6639 138.546 13.667C138.467 13.6798 138.388 13.6862 138.309 13.6862V13.6862Z" fill="#DD675B"/>
<path d="M135.47 7.91957C135.441 7.92889 135.41 7.92889 135.381 7.91957C135.363 7.90854 135.348 7.89405 135.336 7.87698C135.324 7.8599 135.316 7.8406 135.312 7.82024C135.308 7.79988 135.308 7.77887 135.312 7.7585C135.316 7.73813 135.324 7.71882 135.336 7.70172C135.568 7.35908 135.896 7.09321 136.28 6.93801C136.663 6.78282 137.084 6.74533 137.489 6.83033C137.51 6.83553 137.529 6.84484 137.546 6.85771C137.563 6.87059 137.578 6.88676 137.588 6.90528C137.599 6.9238 137.606 6.94428 137.609 6.96553C137.611 6.98677 137.61 7.00834 137.604 7.02896C137.594 7.0695 137.567 7.10429 137.532 7.12585C137.496 7.14741 137.453 7.15403 137.412 7.14429C137.072 7.07129 136.718 7.10188 136.396 7.2321C136.074 7.36231 135.799 7.58617 135.605 7.87472C135.587 7.89164 135.566 7.90443 135.543 7.91218C135.52 7.91993 135.495 7.92246 135.47 7.91957V7.91957Z" fill="#003672"/>
<path d="M142.462 7.91959C142.435 7.91934 142.409 7.91283 142.386 7.90057C142.363 7.88832 142.342 7.87068 142.327 7.84911C142.136 7.55791 141.861 7.33196 141.538 7.20144C141.215 7.07091 140.86 7.04204 140.52 7.11867C140.479 7.12887 140.435 7.12211 140.398 7.09988C140.361 7.07765 140.335 7.04177 140.325 7.00014C140.315 6.9585 140.322 6.91452 140.344 6.87788C140.366 6.84123 140.402 6.81491 140.443 6.80471C140.848 6.71883 141.27 6.75591 141.653 6.91118C142.037 7.06645 142.365 7.33282 142.596 7.67611C142.608 7.6932 142.616 7.71252 142.621 7.73289C142.625 7.75326 142.625 7.77426 142.621 7.79462C142.616 7.81499 142.608 7.83429 142.596 7.85136C142.584 7.86843 142.569 7.88292 142.551 7.89396C142.525 7.91199 142.494 7.92098 142.462 7.91959V7.91959Z" fill="#003672"/>
<path d="M143.909 8.51559C143.999 8.40159 144.124 8.32116 144.265 8.28742C144.405 8.25368 144.554 8.26861 144.685 8.32978C144.791 8.41869 144.872 8.53273 144.923 8.66146C144.973 8.79018 144.99 8.92949 144.973 9.06662C144.957 9.76757 144.675 10.4362 144.185 10.9376C144.135 11.001 144.07 11.052 143.997 11.0865C143.923 11.1209 143.843 11.1379 143.762 11.1362C143.544 11.1362 143.448 10.8543 143.416 10.6364C143.299 9.89223 143.476 9.13172 143.909 8.51559V8.51559Z" fill="#F8C79F"/>
<path d="M133.991 8.51559C133.902 8.40159 133.776 8.32116 133.636 8.28742C133.495 8.25368 133.347 8.26861 133.216 8.32978C133.109 8.41792 133.026 8.53186 132.976 8.66079C132.925 8.78973 132.909 8.92942 132.927 9.06662C132.944 9.76757 133.225 10.4362 133.715 10.9376C133.766 11.001 133.83 11.052 133.904 11.0865C133.977 11.1209 134.057 11.1379 134.138 11.1362C134.356 11.1362 134.452 10.8543 134.484 10.6364C134.599 9.89233 134.422 9.13283 133.991 8.51559V8.51559Z" fill="#F8C79F"/>
<path d="M133.805 9.5153C134.728 8.05993 135.31 6.41514 135.509 4.70341C138.081 6.21899 141.037 6.95366 144.018 6.81782C144.448 6.81782 145.806 4.06909 145.3 3.61417C143.858 2.27504 141.814 1.82653 139.854 1.69197C138.443 1.51777 137.011 1.63998 135.65 2.05078C134.973 2.26256 134.352 2.62511 133.835 3.11118C133.318 3.59725 132.918 4.19421 132.665 4.85719C132.375 6.00873 132.437 7.22071 132.844 8.33635C132.998 8.81049 133.286 9.38715 133.805 9.5153Z" fill="#003672"/>
<path d="M143.032 6.31136C142.992 7.33021 143.213 8.34241 143.673 9.25232C144.255 8.60336 144.67 7.82279 144.884 6.97772C144.986 6.70294 144.986 6.40033 144.884 6.12555C144.8 5.98173 144.676 5.86597 144.526 5.79296C144.377 5.71995 144.209 5.69298 144.044 5.71548C143.648 5.79147 143.291 6.00197 143.032 6.31136V6.31136Z" fill="#003672"/>
<path d="M130.185 187.773L140.878 233.611L138.315 234.38L123.425 198.64C123.425 198.64 124.11 184.806 130.185 187.773Z" fill="#003672"/>
<path d="M125.495 203.657L129.923 214.28L128.122 191.22L125.495 203.657Z" fill="#002854"/>
<path d="M121.355 187.741C121.355 187.741 117.915 191.316 118.6 202.478C119.286 213.639 121.714 235.52 121.714 235.52H125.187L128.301 188.49C128.301 188.49 122.656 185.441 121.355 187.741Z" fill="#003672"/>
<path d="M129.172 170.915C131.421 176.387 130.114 182.025 130.185 187.747C126.552 188.683 124.931 188.766 121.355 187.715C121.562 184.062 121.066 180.404 119.895 176.938C120.962 175.367 122.332 174.024 123.925 172.99C125.519 171.956 127.303 171.25 129.172 170.915V170.915Z" fill="#E0422D"/>
<path d="M129.07 175.817C130.845 177.252 132.858 178.366 135.016 179.11C138.995 177.624 144.627 173.485 145.062 171.806C145.149 171.576 145.186 171.331 145.172 171.086C145.158 170.841 145.092 170.601 144.979 170.383C144.563 169.743 143.339 169.371 142.371 169.627C141.404 169.884 140.84 170.717 141.167 171.396C141.385 171.851 141.98 172.415 141.634 172.825C140.353 174.33 136.81 175.08 135.029 176.31C133.106 175.42 132.773 174.945 131.319 173.696C131.152 173.517 130.922 173.411 130.678 173.401C130.535 173.415 130.397 173.461 130.274 173.536C129.866 173.749 129.531 174.081 129.316 174.488C129.101 174.896 129.015 175.359 129.07 175.817Z" fill="#F8C79F"/>
<path d="M125.585 168.455C126.95 168.628 128.923 169.672 132.031 173.939C131.217 174.766 130.288 175.65 129.468 176.47C127.943 175.508 126.61 174.27 125.54 172.818C125.001 172.203 124.659 171.439 124.56 170.627C124.541 169.832 124.714 168.352 125.585 168.455Z" fill="#E0422D"/>
<path d="M130.864 175.253L126.802 172.165L129.333 176.387L130.864 175.253Z" fill="#A33021"/>
<path d="M125.584 168.455L122.874 167.628L120.612 168.211L119.997 176.816L123.579 179.892L129.922 177.528L125.584 168.455Z" fill="#E0422D"/>
<path d="M123.169 170.915C124.98 172.823 126.236 175.189 126.802 177.758C125.931 178.104 124.431 179.04 123.502 179.206C123.394 179.245 123.277 179.245 123.169 179.206C123.11 179.155 123.066 179.088 123.041 179.014C122.641 177.73 122.614 176.359 122.964 175.061C123.142 173.686 123.211 172.3 123.169 170.915Z" fill="#A33021"/>
<path d="M121.771 164.783C122.098 165.935 122.242 167.13 122.201 168.327C122.842 169.512 124.764 170.627 125.584 170.627C124.898 169.063 125.372 165.937 125.584 164.623C124.311 164.513 123.03 164.567 121.771 164.783V164.783Z" fill="#F8C79F"/>
<path d="M121.816 164.899C121.929 165.237 122.011 165.584 122.06 165.937C122.873 167.093 123.978 168.013 125.264 168.602C125.256 167.452 125.346 166.303 125.533 165.168C125.11 164.963 124.693 164.771 124.251 164.585C123.452 164.547 122.651 164.609 121.868 164.771C121.816 164.809 121.816 164.854 121.816 164.899Z" fill="#D9A275"/>
<path d="M118.357 152.257C117.803 152.294 117.267 152.465 116.794 152.757C116.322 153.048 115.928 153.451 115.647 153.929C115.155 154.853 115.023 155.926 115.275 156.941C115.532 157.957 115.947 158.925 116.506 159.811C116.703 160.057 116.846 160.342 116.925 160.646C117.005 160.951 117.019 161.269 116.967 161.58C116.869 161.805 116.717 162.001 116.523 162.151C116.329 162.302 116.101 162.4 115.858 162.438C115.352 162.523 114.833 162.432 114.385 162.182C114.436 162.401 114.533 162.606 114.67 162.784C114.807 162.962 114.981 163.109 115.179 163.214C115.598 163.441 116.054 163.593 116.525 163.662C117.372 163.882 118.27 163.784 119.049 163.387C119.614 162.955 120.015 162.345 120.19 161.657C120.73 160.117 121.043 158.507 121.119 156.877C121.177 155.717 121.388 154.16 120.542 153.173C120.269 152.868 119.931 152.627 119.553 152.468C119.175 152.31 118.767 152.238 118.357 152.257V152.257Z" fill="#003672"/>
<path d="M121.119 156.877C121.229 155.974 121.201 155.06 121.036 154.166C120.846 154.028 120.627 153.936 120.395 153.897C119.617 154.217 118.949 154.758 118.475 155.452C118 156.147 117.739 156.965 117.723 157.806C117.797 158.597 117.967 159.376 118.229 160.125C118.492 160.878 118.56 161.684 118.428 162.47C118.307 162.973 118.025 163.422 117.627 163.752C118.117 163.756 118.6 163.627 119.024 163.38C119.588 162.948 119.99 162.339 120.164 161.65C120.712 160.114 121.034 158.506 121.119 156.877V156.877Z" fill="#002854"/>
<path d="M130.063 164.969C129.907 164.705 129.731 164.452 129.538 164.213C129.391 163.935 129.27 163.643 129.179 163.342C128.995 162.745 128.941 162.116 129.019 161.497C129.019 161.221 129.288 159.952 129.775 160.651C130.113 161.267 130.3 161.954 130.32 162.656C130.392 163.437 130.305 164.224 130.063 164.969V164.969Z" fill="#003672"/>
<path d="M119.728 154.115C119.264 154.589 119.006 155.227 119.011 155.89C118.985 156.046 119.002 156.206 119.058 156.354C119.114 156.502 119.209 156.632 119.332 156.732C119.455 156.831 119.602 156.897 119.758 156.921C119.914 156.945 120.074 156.928 120.222 156.87C120.524 156.782 120.801 156.621 121.029 156.403C121.424 156.04 121.746 155.605 121.977 155.121C122.13 154.847 122.207 154.538 122.202 154.224C122.191 154.042 122.123 153.867 122.009 153.724C121.894 153.582 121.737 153.479 121.561 153.43C121.117 153.385 120.67 153.476 120.279 153.692C120.078 153.808 119.892 153.95 119.728 154.115Z" fill="#E0422D"/>
<path d="M119.068 160.843C119.749 162.545 120.875 164.032 122.329 165.149C122.488 164.433 122.517 163.695 122.413 162.97C122.323 161.99 122.214 161.009 122.079 160.036C121.997 159.189 121.809 158.356 121.522 157.556C121.285 156.966 120.369 155.461 119.459 156.159C119.12 156.528 118.907 156.994 118.85 157.492C118.732 158.017 118.686 158.556 118.716 159.094C118.749 159.691 118.867 160.28 119.068 160.843V160.843Z" fill="#003672"/>
<path d="M129.845 155.57C128.814 154.192 126.584 153.647 124.72 154.026C123.143 154.352 121.228 155.467 120.58 156.755C120.049 157.799 120.17 159.318 120.388 160.599C120.277 160.573 120.163 160.56 120.049 160.561C119.813 160.552 119.581 160.617 119.385 160.747C119.188 160.877 119.037 161.065 118.953 161.285C118.918 161.386 118.901 161.492 118.902 161.599C118.879 161.678 118.866 161.76 118.863 161.842C118.863 162.611 119.824 163.271 120.709 163.323C120.83 163.338 120.953 163.338 121.074 163.323C121.357 164.138 121.812 164.883 122.407 165.508C123.003 166.132 123.726 166.622 124.527 166.943C125.06 167.161 125.634 167.261 126.209 167.237C126.784 167.212 127.347 167.064 127.859 166.802C128.523 166.348 128.991 165.662 129.173 164.879C129.36 164.256 129.449 163.608 129.435 162.957C129.397 162.492 129.397 162.025 129.435 161.561C129.548 161.012 129.731 160.48 129.98 159.978C130.569 158.575 130.832 156.883 129.845 155.57Z" fill="#F8C79F"/>
<path d="M125.886 158.741C125.685 158.76 125.491 158.824 125.317 158.927C125.143 159.03 124.994 159.17 124.88 159.337C124.791 159.517 125.079 159.67 125.181 159.491C125.277 159.368 125.398 159.266 125.536 159.193C125.675 159.121 125.827 159.078 125.982 159.068C126.14 159.033 126.301 159.013 126.463 159.01C126.597 159.01 126.713 159.068 126.847 159.062C126.982 159.055 126.943 159.004 126.918 158.953C126.777 158.664 126.149 158.69 125.886 158.741Z" fill="#003672"/>
<path d="M130.147 158.991C129.91 158.69 129.173 158.562 128.923 158.914C128.846 159.017 129 159.145 129.115 159.081C129.252 159.015 129.403 158.986 129.554 158.999C129.705 159.011 129.85 159.064 129.974 159.152C130.044 159.209 130.198 159.094 130.147 158.991Z" fill="#003672"/>
<path d="M125.546 162.06C125.459 162.008 125.364 161.969 125.265 161.945C125.233 161.93 125.198 161.921 125.163 161.921C125.127 161.921 125.092 161.928 125.06 161.942C125.028 161.957 124.999 161.978 124.976 162.004C124.953 162.031 124.936 162.062 124.926 162.096C124.916 162.13 124.913 162.166 124.919 162.201C124.924 162.236 124.937 162.269 124.956 162.299C124.976 162.328 125.001 162.353 125.031 162.371C125.061 162.39 125.095 162.402 125.13 162.406C125.214 162.436 125.306 162.439 125.391 162.415C125.477 162.39 125.554 162.341 125.611 162.272C125.662 162.201 125.617 162.105 125.546 162.06Z" fill="#DD675B"/>
<path d="M129.186 161.945C129.148 161.94 129.109 161.945 129.074 161.958C129.038 161.972 129.006 161.994 128.981 162.022C128.827 162.163 129.064 162.374 129.218 162.24C129.371 162.105 129.314 162.137 129.307 162.054C129.304 162.024 129.29 161.996 129.267 161.976C129.245 161.956 129.216 161.945 129.186 161.945V161.945Z" fill="#DD675B"/>
<path d="M125.463 161.195C125.383 161.195 125.307 161.227 125.25 161.283C125.194 161.34 125.162 161.416 125.162 161.496C125.162 161.576 125.194 161.653 125.25 161.709C125.307 161.766 125.383 161.797 125.463 161.797C125.543 161.797 125.62 161.766 125.676 161.709C125.733 161.653 125.764 161.576 125.764 161.496C125.764 161.416 125.733 161.34 125.676 161.283C125.62 161.227 125.543 161.195 125.463 161.195V161.195Z" fill="#003672"/>
<path d="M128.795 161.061C128.72 161.061 128.648 161.091 128.595 161.143C128.542 161.196 128.513 161.268 128.513 161.343C128.513 161.418 128.542 161.489 128.595 161.542C128.648 161.595 128.72 161.625 128.795 161.625C128.869 161.625 128.941 161.595 128.994 161.542C129.047 161.489 129.077 161.418 129.077 161.343C129.077 161.268 129.047 161.196 128.994 161.143C128.941 161.091 128.869 161.061 128.795 161.061V161.061Z" fill="#003672"/>
<path d="M128.404 162.797C127.968 162.848 127.821 162.086 127.763 161.81C127.756 161.765 127.735 161.723 127.702 161.691C127.669 161.659 127.626 161.638 127.581 161.632C127.535 161.626 127.489 161.636 127.449 161.659C127.409 161.681 127.377 161.717 127.359 161.759C127.116 162.4 127.475 163.515 128.378 163.457C128.865 163.425 128.865 162.746 128.404 162.797Z" fill="#DD675B"/>
<path d="M125.533 163.137C125.494 163.085 125.424 163.021 125.36 163.06C125.34 163.075 125.324 163.095 125.315 163.117C125.209 163.365 125.188 163.64 125.257 163.9C125.325 164.16 125.479 164.39 125.693 164.553C125.925 164.725 126.201 164.83 126.489 164.856C126.777 164.882 127.067 164.828 127.327 164.7C127.692 164.514 127.698 164.143 127.275 164.059C126.846 164.001 126.434 163.848 126.071 163.611C125.869 163.48 125.688 163.32 125.533 163.137V163.137Z" fill="white"/>
<path d="M120.407 160.664C120.447 162.241 120.941 163.774 121.829 165.078C122.528 164.258 122.4 162.253 121.797 161.375C123.312 160.861 124.758 160.163 126.103 159.299C127.405 158.475 128.447 157.3 129.108 155.909C129.751 156.757 130.19 157.741 130.39 158.786C132.466 157.319 132.056 153.161 128.942 153.66C128.092 153.005 127.089 152.577 126.028 152.418C124.967 152.259 123.883 152.373 122.878 152.751C121.874 153.128 120.982 153.756 120.289 154.574C119.595 155.393 119.122 156.375 118.914 157.428C118.82 158.054 118.911 158.694 119.176 159.269C119.441 159.844 119.869 160.329 120.407 160.664V160.664Z" fill="#003672"/>
<path d="M116.851 191.22C116.851 191.22 121.08 193.232 125.18 192.61C125.667 197.14 125.091 200.818 123.399 200.818C121.708 200.818 116.505 199.966 116.505 199.966C116.505 199.966 113 199.594 116.851 191.22Z" fill="#6593C7"/>
<path d="M125.02 194.667L124.559 194.629C124.559 194.411 126.481 172.728 122.336 168.942C122.132 168.738 121.883 168.586 121.609 168.498C121.335 168.41 121.043 168.389 120.759 168.436C118.517 168.769 118.068 176.855 117.671 183.986C117.551 187.331 117.261 190.667 116.8 193.981L116.345 193.905C116.787 191.342 116.985 187.741 117.203 183.935C117.645 175.919 118.068 168.352 120.689 167.961C121.043 167.909 121.405 167.939 121.745 168.05C122.085 168.162 122.395 168.35 122.65 168.602C126.942 172.543 125.097 193.77 125.02 194.667Z" fill="#6593C7"/>
<path d="M120.65 175.009C120.789 177.52 121.494 179.967 122.714 182.166C126.391 182.166 131.991 179.905 135.919 173.427C136.451 173.818 137.604 174.349 138.245 174.125C138.554 174.019 138.836 173.847 139.071 173.62C139.305 173.393 139.487 173.117 139.603 172.812C139.692 172.584 139.73 172.34 139.713 172.096C139.697 171.852 139.626 171.615 139.507 171.402C139.364 171.185 139.164 171.011 138.929 170.898C138.695 170.785 138.434 170.738 138.174 170.761C138.713 170.608 139.193 170.364 139.731 170.21C139.27 169.403 137.969 169.262 137.072 169.672C136.175 170.082 135.624 170.902 134.971 171.594C131.953 174.836 129.614 175.714 124.77 178.175C124.204 176.335 123.864 174.433 123.758 172.511C122.688 172.197 121.317 174.215 120.65 175.009Z" fill="#F8C79F"/>
<path d="M122.419 169.057C122.21 168.779 121.936 168.557 121.621 168.409C121.306 168.262 120.96 168.194 120.612 168.211C119.638 168.301 119.068 169.237 118.844 170.089C118.457 171.715 118.533 173.417 119.062 175.003C119.594 176.604 120.272 178.152 121.086 179.629C122.447 178.715 123.943 178.02 125.52 177.573C125.11 176.169 124.495 171.755 122.419 169.057Z" fill="#E0422D"/>
<path d="M154.846 163.169H142.32C142.227 163.167 142.135 163.195 142.058 163.248C141.981 163.3 141.923 163.376 141.891 163.464L138.476 172.12C138.446 172.19 138.434 172.267 138.442 172.343C138.449 172.419 138.475 172.493 138.518 172.556C138.56 172.62 138.618 172.672 138.685 172.707C138.753 172.743 138.829 172.761 138.905 172.761H151.438C151.532 172.761 151.623 172.733 151.701 172.68C151.779 172.628 151.839 172.553 151.873 172.466L155.276 163.81C155.304 163.739 155.314 163.663 155.306 163.587C155.298 163.512 155.272 163.439 155.23 163.376C155.188 163.313 155.131 163.261 155.064 163.225C154.997 163.189 154.922 163.17 154.846 163.169Z" fill="#003672"/>
<path d="M132.607 171.332H151.444V172.754H132.607C132.418 172.754 132.237 172.679 132.104 172.546C131.97 172.413 131.896 172.232 131.896 172.043C131.896 171.854 131.97 171.673 132.104 171.54C132.237 171.407 132.418 171.332 132.607 171.332V171.332Z" fill="#003672"/>
<path d="M149.509 167.237H145.736C145.698 167.238 145.661 167.25 145.63 167.271C145.599 167.293 145.576 167.324 145.563 167.359L145.261 168.199C145.251 168.226 145.248 168.257 145.251 168.286C145.255 168.316 145.266 168.344 145.283 168.368C145.3 168.393 145.323 168.413 145.349 168.427C145.375 168.441 145.405 168.448 145.434 168.448H149.208C149.241 168.448 149.273 168.439 149.301 168.422C149.329 168.405 149.353 168.381 149.368 168.352L149.67 167.507C149.684 167.479 149.69 167.448 149.689 167.416C149.688 167.385 149.679 167.355 149.663 167.328C149.647 167.301 149.625 167.279 149.598 167.263C149.571 167.247 149.541 167.238 149.509 167.237V167.237Z" fill="#FFEDCC"/>
<path d="M121.714 235.533V239.102C121.727 239.346 121.836 239.574 122.018 239.737C122.199 239.901 122.438 239.985 122.681 239.973H125.244C125.407 239.985 125.569 239.957 125.719 239.893C125.869 239.829 126.001 239.731 126.105 239.605C126.209 239.48 126.281 239.332 126.317 239.173C126.352 239.014 126.349 238.849 126.308 238.692L125.206 235.559L121.714 235.533Z" fill="#F8C79F"/>
<path d="M138.297 234.38L138.995 237.756H148.145C148.319 237.778 148.496 237.734 148.64 237.633C148.783 237.531 148.884 237.38 148.922 237.208C148.959 237.036 148.932 236.857 148.844 236.704C148.756 236.552 148.614 236.438 148.446 236.385L140.879 233.611L138.297 234.38Z" fill="#F8C79F"/>
<path d="M138.995 237.756H148.145C148.319 237.778 148.496 237.734 148.639 237.633C148.783 237.532 148.884 237.38 148.921 237.208C148.959 237.037 148.931 236.857 148.843 236.705C148.755 236.552 148.613 236.438 148.446 236.385L144.967 235.104C144.082 236.552 140.597 236.174 138.598 235.821L138.995 237.756Z" fill="#E0422D"/>
<path d="M125.225 239.973C125.387 239.984 125.55 239.957 125.7 239.893C125.849 239.829 125.982 239.73 126.086 239.605C126.19 239.48 126.262 239.332 126.297 239.173C126.333 239.014 126.33 238.849 126.289 238.692L125.936 237.686C123.822 238.326 122.489 238.064 121.714 237.718V239.127C121.727 239.371 121.836 239.599 122.018 239.763C122.199 239.926 122.438 240.011 122.681 239.999L125.225 239.973Z" fill="#E0422D"/>
<path d="M118.504 195.442C118.351 195.666 118.283 195.936 118.312 196.205C118.308 196.312 118.328 196.419 118.37 196.517C118.412 196.616 118.475 196.704 118.556 196.775C118.678 196.841 118.814 196.876 118.953 196.878C119.292 196.878 119.638 196.916 119.978 196.929C120.153 196.949 120.33 196.913 120.484 196.826C120.569 196.749 120.636 196.655 120.682 196.55C120.729 196.445 120.753 196.332 120.753 196.218C120.799 196.033 120.786 195.838 120.715 195.66C120.642 195.56 120.546 195.479 120.434 195.425C120.322 195.371 120.198 195.346 120.074 195.353C119.798 195.35 119.524 195.32 119.254 195.263C119.125 195.216 118.986 195.208 118.852 195.24C118.719 195.272 118.598 195.342 118.504 195.442Z" fill="#FFBB45"/>
</g>
<defs>
<filter id="filter0_d" x="0" y="0" width="274.409" height="248" filterUnits="userSpaceOnUse" color-interpolation-filters="sRGB">
<feFlood flood-opacity="0" result="BackgroundImageFix"/>
<feColorMatrix in="SourceAlpha" type="matrix" values="0 0 0 0 0 0 0 0 0 0 0 0 0 0 0 0 0 0 127 0" result="hardAlpha"/>
<feOffset dy="4"/>
<feGaussianBlur stdDeviation="2"/>
<feComposite in2="hardAlpha" operator="out"/>
<feColorMatrix type="matrix" values="0 0 0 0 0 0 0 0 0 0 0 0 0 0 0 0 0 0 0.25 0"/>
<feBlend mode="normal" in2="BackgroundImageFix" result="effect1_dropShadow"/>
<feBlend mode="normal" in="SourceGraphic" in2="effect1_dropShadow" result="shape"/>
</filter>
</defs>
</svg>
