<svg width="348" height="240" viewBox="0 0 348 240" fill="none" xmlns="http://www.w3.org/2000/svg">
<path d="M164.325 184.18L127.955 198.805L82.9346 86.5689L113.677 74.2089C115.169 73.6092 116.839 73.6275 118.318 74.2598C119.797 74.8922 120.965 76.0867 121.565 77.5809L164.325 184.18Z" fill="#F4A640"/>
<path d="M151.244 81.9848L81.6045 94.3414L98.9573 192.371L168.596 180.014L151.244 81.9848Z" fill="#ADCFD8"/>
<path d="M133.652 95.1406L102.554 100.659L102.678 101.358L133.775 95.8401L133.652 95.1406Z" fill="#55769F"/>
<path d="M139.872 92.2083L95.708 100.045L95.8318 100.744L139.995 92.9078L139.872 92.2083Z" fill="#55769F"/>
<path d="M146.193 100.486L92.6123 109.993L92.7361 110.692L146.316 101.185L146.193 100.486Z" fill="#55769F"/>
<path d="M146.786 103.848L93.2061 113.355L93.3299 114.055L146.91 104.548L146.786 103.848Z" fill="#55769F"/>
<path d="M147.977 110.572L94.3965 120.079L94.5203 120.778L148.101 111.271L147.977 110.572Z" fill="#55769F"/>
<path d="M148.57 113.934L94.9902 123.441L95.1141 124.141L148.694 114.633L148.57 113.934Z" fill="#55769F"/>
<path d="M149.169 117.295L95.5889 126.802L95.7127 127.501L149.293 117.994L149.169 117.295Z" fill="#55769F"/>
<path d="M151.786 132.082L98.2061 141.589L98.3299 142.289L151.91 132.782L151.786 132.082Z" fill="#55769F"/>
<path d="M152.402 135.567L98.8213 145.074L98.9451 145.774L152.525 136.267L152.402 135.567Z" fill="#55769F"/>
<path d="M153.019 139.054L99.4385 148.561L99.5623 149.261L153.142 139.754L153.019 139.054Z" fill="#55769F"/>
<path d="M153.636 142.541L100.056 152.048L100.179 152.747L153.76 143.24L153.636 142.541Z" fill="#55769F"/>
<path d="M154.254 146.028L100.674 155.535L100.798 156.234L154.378 146.727L154.254 146.028Z" fill="#55769F"/>
<path d="M154.871 149.514L101.291 159.021L101.415 159.72L154.995 150.213L154.871 149.514Z" fill="#55769F"/>
<path d="M155.486 153L101.906 162.507L102.03 163.206L155.61 153.699L155.486 153Z" fill="#55769F"/>
<path d="M141.207 79.5426L72.8105 97.5586L98.111 193.839L166.508 175.823L141.207 79.5426Z" fill="#DAEEF7"/>
<path d="M124.747 94.0936L94.2041 102.139L94.3846 102.826L124.928 94.7806L124.747 94.0936Z" fill="#55769F"/>
<path d="M130.708 90.662L87.332 102.087L87.5126 102.774L130.888 91.349L130.708 90.662Z" fill="#55769F"/>
<path d="M137.685 98.3938L85.0605 112.255L85.2411 112.942L137.865 99.0808L137.685 98.3938Z" fill="#55769F"/>
<path d="M138.552 101.696L85.9277 115.558L86.1083 116.245L138.733 102.383L138.552 101.696Z" fill="#55769F"/>
<path d="M140.286 108.299L87.6611 122.161L87.8414 122.846L140.466 108.985L140.286 108.299Z" fill="#55769F"/>
<path d="M141.155 111.601L88.5303 125.463L88.7108 126.15L141.335 112.288L141.155 111.601Z" fill="#55769F"/>
<path d="M142.021 114.904L89.3965 128.765L89.577 129.452L142.201 115.591L142.021 114.904Z" fill="#55769F"/>
<path d="M145.662 130.476L92.8789 144.096L93.0563 144.785L145.839 131.165L145.662 130.476Z" fill="#55769F"/>
<path d="M146.739 132.851L94.1143 146.713L94.2948 147.4L146.919 133.538L146.739 132.851Z" fill="#55769F"/>
<path d="M147.639 136.274L95.0146 150.135L95.1952 150.823L147.82 136.961L147.639 136.274Z" fill="#55769F"/>
<path d="M148.537 139.698L95.9131 153.56L96.0936 154.247L148.718 140.385L148.537 139.698Z" fill="#55769F"/>
<path d="M149.438 143.123L96.8135 156.985L96.994 157.672L149.618 143.81L149.438 143.123Z" fill="#55769F"/>
<path d="M150.097 147.665L97.3145 161.285L97.4918 161.974L150.275 148.355L150.097 147.665Z" fill="#55769F"/>
<path d="M151.238 149.97L98.6133 163.832L98.7938 164.519L151.418 150.657L151.238 149.97Z" fill="#55769F"/>
<path d="M150.521 189.73L77.3047 219.171L34.5947 112.708L96.1223 74.7074C96.9345 74.2056 97.8465 73.8876 98.7943 73.7756C99.7421 73.6637 100.703 73.7605 101.61 74.0593C102.516 74.3581 103.346 74.8517 104.042 75.5055C104.738 76.1593 105.283 76.9575 105.639 77.8442L150.521 189.73Z" fill="#FEB546"/>
<path d="M53.6747 201.942L43.2291 201.753C39.6022 195.173 36.9414 189.451 36.9414 189.451C48.739 186.729 58.6955 187.846 66.9908 191.039L71.561 202.156L72.5402 193.595C93.097 204.702 101.567 228.215 101.567 228.215C101.567 228.215 65.2361 224.34 57.5305 220.753C54.5568 219.369 50.8089 214.386 47.3294 208.792C50.1173 206.137 53.6747 201.942 53.6747 201.942Z" fill="#FF5B7E"/>
<path d="M36.9414 189.451C36.9414 189.451 83.5863 209.104 101.567 228.211C101.567 228.211 65.2361 224.336 57.5341 220.75C54.5604 219.365 50.8125 214.382 47.333 208.788C50.1173 206.134 53.6747 201.938 53.6747 201.938L43.2291 201.749C39.6022 195.173 36.9414 189.451 36.9414 189.451Z" fill="#E03268"/>
<path d="M38.4307 220.861C44.7112 217.032 51.048 214.981 57.1799 214.165C58.9778 216.403 61.1832 219.034 61.1832 219.034L61.4157 213.789C84.9437 212.717 104.444 228.499 104.444 228.499C90.8179 237.098 79.1941 239.468 69.6727 238.699C69.1081 236.864 68.3099 234.127 68.3099 234.127L66.6319 238.34C62.4322 237.68 58.3605 236.37 54.5623 234.458C55.4528 232.273 56.3913 229.778 56.3913 229.778L51.3201 232.658C42.8114 227.458 38.4307 220.861 38.4307 220.861Z" fill="#FF5B7E"/>
<path d="M69.6658 238.7C69.1013 236.866 68.303 234.128 68.303 234.128L66.625 238.342C62.4254 237.681 58.3536 236.371 54.5554 234.46C55.4459 232.274 56.3844 229.78 56.3844 229.78L51.3132 232.66C42.8154 227.458 38.4346 220.861 38.4346 220.861C65.8471 217.691 104.442 228.499 104.442 228.499C90.811 237.098 79.1873 239.468 69.6658 238.7Z" fill="#E03268"/>
<path d="M175.711 79.363L184.131 73.1722C183.292 65.7034 182.172 59.4922 182.172 59.4922C170.969 64.0858 163.484 70.753 158.551 78.1534L161.228 89.8798L155.494 83.455C145.11 104.405 151.749 128.499 151.749 128.499C151.749 128.499 179.186 104.335 183.405 96.9598C185.035 94.111 185.222 87.877 184.844 81.2962C181.035 80.7334 175.711 79.363 175.711 79.363Z" fill="#02CCC0"/>
<path d="M182.173 59.4934C182.173 59.4934 155.413 102.498 151.748 128.493C151.748 128.493 179.182 104.334 183.405 96.9538C185.035 94.105 185.222 87.871 184.843 81.2902C181.039 80.7322 175.716 79.3618 175.716 79.3618L184.136 73.171C183.298 65.7034 182.173 59.4934 182.173 59.4934Z" fill="#06BFAD"/>
<path d="M199.067 86.0028C191.731 86.5056 185.375 88.494 179.896 91.3704C179.719 94.236 179.433 97.6596 179.433 97.6596L176.22 93.5112C156.389 106.231 149.568 130.386 149.568 130.386C165.653 129.533 176.512 124.746 183.848 118.626C183.248 116.802 182.324 114.106 182.324 114.106L186.127 116.574C189.176 113.607 191.746 110.184 193.745 106.428C191.758 105.158 189.55 103.66 189.55 103.66L195.354 103.085C199.292 93.9216 199.067 86.0028 199.067 86.0028Z" fill="#02CCC0"/>
<path d="M183.845 118.621C183.245 116.797 182.321 114.101 182.321 114.101L186.124 116.569C189.173 113.602 191.743 110.18 193.742 106.423C191.755 105.154 189.547 103.655 189.547 103.655L195.351 103.08C199.291 93.9216 199.066 86.0028 199.066 86.0028C174.855 99.2556 149.565 130.386 149.565 130.386C165.653 129.533 176.512 124.752 183.845 118.621Z" fill="#06BFAD"/>
<path d="M266.376 116.64H271.383C270.509 116.05 269.478 115.737 268.424 115.743H142.988C136.426 115.743 131.105 120.466 131.105 126.29V132.989C131.105 138.812 136.426 143.534 142.988 143.534L267.022 143.497L266.376 116.64Z" fill="#E03268"/>
<path d="M141.627 132.986V126.288C141.627 120.463 146.947 115.741 153.51 115.741H150.816C144.253 115.741 138.934 120.463 138.934 126.288V132.986C138.934 138.81 144.253 143.532 150.816 143.532H153.474C146.928 143.52 141.627 138.8 141.627 132.986Z" fill="#FEB546"/>
<path d="M171.006 132.986V126.288C171.006 120.463 176.326 115.741 182.89 115.741H180.195C173.633 115.741 168.312 120.463 168.312 126.288V132.986C168.312 138.81 173.633 143.532 180.195 143.532H182.854C176.311 143.52 171.006 138.8 171.006 132.986Z" fill="#FEB546"/>
<path d="M195.163 115.767C188.886 115.767 183.799 120.282 183.799 125.847V133.416C183.799 138.987 188.886 143.502 195.163 143.502H273.25V141.808H272.927L253.075 140.14L249.061 126.175C249.061 126.175 256.805 118.456 257.31 118.255C257.814 118.055 272.925 117.453 272.925 117.453H273.247V115.773L195.163 115.767Z" fill="#FF5B7E"/>
<path d="M268.186 129.586C268.186 121.419 272.942 117.459 272.942 117.459H196.762C190.996 117.459 186.323 121.606 186.323 126.723V132.55C186.323 137.666 190.998 141.813 196.762 141.813H272.942C272.942 141.813 268.186 139.871 268.186 129.586Z" fill="#DAEEF7"/>
<g style="mix-blend-mode:multiply">
<path d="M186.323 126.719V132.547C186.324 133.297 186.427 134.045 186.628 134.768C189.197 129.189 194.121 123.815 203.495 122.087C225.381 118.053 272.942 117.455 272.942 117.455H196.762C190.996 117.459 186.323 121.606 186.323 126.719Z" fill="#DAEEF7"/>
</g>
<path d="M264.312 172.186H269.98C269.016 171.456 267.84 171.062 266.631 171.064H124.66C117.229 171.064 111.211 176.974 111.211 184.264V192.648C111.211 199.939 117.233 205.848 124.66 205.848L265.043 205.801L264.312 172.186Z" fill="#07085B"/>
<path d="M183.712 171.095C176.609 171.095 170.85 176.747 170.85 183.719V193.199C170.85 200.171 176.603 205.823 183.712 205.823H272.092V203.704H271.732L249.264 201.615L244.724 184.128C244.724 184.128 253.488 174.466 254.059 174.216C254.631 173.967 271.732 173.211 271.732 173.211H272.092V171.103L183.712 171.095Z" fill="#55769F"/>
<path d="M266.357 188.4C266.357 178.176 271.74 173.22 271.74 173.22H185.519C178.995 173.22 173.706 178.411 173.706 184.816V192.109C173.706 198.513 178.995 203.705 185.519 203.705H271.74C271.74 203.705 266.357 201.267 266.357 188.4Z" fill="#DAEEF7"/>
<g style="mix-blend-mode:multiply">
<path d="M173.706 184.809V192.103C173.706 193.04 173.822 193.974 174.05 194.883C176.958 187.9 182.532 181.174 193.141 179.011C217.912 173.961 271.74 173.214 271.74 173.214H185.519C178.995 173.214 173.706 178.405 173.706 184.809Z" fill="#DAEEF7"/>
</g>
<path d="M106.529 144.351H100.859C101.877 143.757 103.037 143.449 104.215 143.461H246.246C253.677 143.461 259.7 148.151 259.7 153.936V160.589C259.7 166.374 253.677 171.063 246.246 171.063L105.809 171.026L106.529 144.351Z" fill="#02CCC0"/>
<path d="M187.162 143.486C194.269 143.486 200.029 147.971 200.029 153.503V161.022C200.029 166.554 194.269 171.038 187.162 171.038H98.7471V169.358H99.1066L121.583 167.701L126.127 153.825C126.127 153.825 117.359 146.159 116.787 145.961C116.215 145.763 99.1066 145.163 99.1066 145.163H98.7471V143.49L187.162 143.486Z" fill="#06BFAD"/>
<path d="M104.482 157.213C104.482 149.1 99.0967 145.168 99.0967 145.168H185.351C191.878 145.168 197.169 149.287 197.169 154.369V160.156C197.169 165.238 191.878 169.357 185.351 169.357H99.0967C99.0967 169.357 104.482 167.428 104.482 157.213Z" fill="#DAEEF7"/>
<g style="mix-blend-mode:multiply">
<path d="M197.165 154.369V160.155C197.165 160.904 197.049 161.648 196.821 162.362C193.912 156.821 188.337 151.484 177.723 149.762C152.943 145.755 99.0967 145.161 99.0967 145.161H185.351C191.88 145.167 197.165 149.287 197.165 154.369Z" fill="#DAEEF7"/>
</g>
<path opacity="0.5" d="M233.672 160.589V153.936C233.672 148.151 227.648 143.461 220.217 143.461H233.704C241.136 143.461 247.158 148.151 247.158 153.936V160.589C247.158 166.374 241.134 171.064 233.704 171.064H220.4C227.744 170.986 233.672 166.327 233.672 160.589Z" fill="#55769F"/>
<path d="M95.808 206.914H89.6953C90.7836 206.253 92.0347 205.908 93.3078 205.919H246.415C254.426 205.919 260.917 211.159 260.917 217.622V225.062C260.917 231.525 254.424 236.764 246.415 236.764L95.0206 236.723L95.808 206.914Z" fill="#FEB546"/>
<path d="M182.73 205.947C190.39 205.947 196.6 210.958 196.6 217.138V225.538C196.6 231.72 190.39 236.73 182.73 236.73H87.417V234.852H87.8101L112.04 233L116.938 217.498C116.938 217.498 107.486 208.932 106.87 208.711C106.254 208.49 87.8125 207.819 87.8125 207.819H87.4194V205.951L182.73 205.947Z" fill="#F4A640"/>
<path d="M93.5996 221.28C93.5996 212.215 87.7949 207.822 87.7949 207.822H180.779C187.815 207.822 193.519 212.424 193.519 218.101V224.568C193.519 230.245 187.815 234.847 180.779 234.847H87.7949C87.7949 234.847 93.5996 232.696 93.5996 221.28Z" fill="#DAEEF7"/>
<path d="M98.8798 228L100.18 230.905C100.231 231.021 100.234 231.151 100.189 231.269C100.145 231.387 100.055 231.483 99.9405 231.535L93.1446 234.586C93.0383 234.633 92.9195 234.645 92.8059 234.619C92.6923 234.593 92.5902 234.531 92.5146 234.443C92.4391 234.354 92.3943 234.243 92.3868 234.127C92.3794 234.01 92.4098 233.895 92.4734 233.797L95.1043 229.694C95.1043 229.694 97.1862 230.07 98.8798 228Z" fill="#07085B"/>
<path d="M107.518 228L108.819 230.905C108.87 231.021 108.874 231.151 108.829 231.269C108.784 231.387 108.694 231.483 108.58 231.535L101.783 234.586C101.676 234.633 101.557 234.646 101.444 234.62C101.33 234.594 101.227 234.532 101.152 234.443C101.076 234.354 101.031 234.243 101.024 234.127C101.017 234.01 101.048 233.895 101.113 233.797L103.742 229.694C103.742 229.694 105.822 230.07 107.518 228Z" fill="#07085B"/>
<path d="M253.309 140.847L252.008 143.76C251.958 143.875 251.954 144.006 251.999 144.124C252.044 144.242 252.133 144.337 252.248 144.39L259.044 147.44C259.15 147.488 259.27 147.5 259.383 147.474C259.497 147.448 259.6 147.386 259.675 147.297C259.751 147.208 259.796 147.097 259.803 146.981C259.81 146.864 259.779 146.748 259.715 146.65L257.078 142.548C257.078 142.548 255.006 142.92 253.309 140.847Z" fill="#07085B"/>
<path d="M244.509 140.502L243.207 143.408C243.157 143.523 243.154 143.654 243.199 143.772C243.243 143.889 243.333 143.984 243.447 144.037L250.243 147.087C250.349 147.135 250.468 147.146 250.582 147.121C250.695 147.095 250.797 147.033 250.873 146.944C250.948 146.856 250.993 146.745 251.001 146.628C251.008 146.512 250.978 146.396 250.914 146.299L248.278 142.2C248.278 142.2 246.199 142.578 244.509 140.502Z" fill="#07085B"/>
<g style="mix-blend-mode:multiply">
<path d="M193.519 218.106V224.573C193.518 225.408 193.393 226.239 193.147 227.037C190.012 220.847 184.001 214.884 172.559 212.966C145.845 208.49 87.7949 207.827 87.7949 207.827H180.779C187.816 207.827 193.519 212.429 193.519 218.106Z" fill="#DAEEF7"/>
</g>
<path d="M122.201 147.872L122.92 152.411L124.447 146.36C124.447 146.36 122.306 145.32 122.213 145.699C122.119 146.078 122.201 147.872 122.201 147.872Z" fill="#07085B"/>
<path d="M134.347 157.64L135.007 165.486L128.093 165.156L128.89 158.208L134.347 157.64Z" fill="#FFC0BB"/>
<path d="M128.511 161.512L128.889 158.208L134.347 157.64L134.576 160.357C133.491 161.44 131.54 162.562 128.511 161.512Z" fill="#F99893"/>
<path d="M124.271 152.354C124.687 153.215 124.466 154.183 123.778 154.514C123.09 154.845 122.196 154.419 121.78 153.554C121.365 152.689 121.585 151.725 122.273 151.394C122.961 151.063 123.855 151.493 124.271 152.354Z" fill="#F99893"/>
<path d="M123.269 152.984C123.233 152.76 123.184 152.538 123.13 152.317C122.889 151.32 122.858 150.284 123.039 149.274C123.219 148.264 123.607 147.303 124.179 146.452C124.75 145.6 125.492 144.877 126.358 144.328C127.223 143.779 128.193 143.417 129.206 143.263C130.219 143.11 131.253 143.169 132.242 143.437C133.231 143.705 134.154 144.176 134.951 144.82C135.749 145.464 136.404 146.267 136.874 147.177C137.345 148.088 137.622 149.088 137.687 150.111C137.892 149.968 138.129 149.874 138.377 149.839C138.625 149.804 138.878 149.828 139.115 149.908C140.015 150.244 140.405 151.429 139.985 152.556C139.566 153.682 138.497 154.322 137.597 153.987C137.474 153.941 137.359 153.877 137.254 153.799C137.115 157.436 134.333 160.414 130.782 160.581C129.1 160.657 127.453 160.09 126.174 158.995C124.469 157.74 123.607 155.076 123.269 152.984Z" fill="#FFC0BB"/>
<path d="M128.655 150.613C128.64 151.037 128.637 151.453 128.615 151.855C128.594 152.257 128.546 152.675 128.387 152.955C128.226 153.18 128.099 153.325 128.094 153.603C128.093 153.734 128.122 153.863 128.177 153.982C128.233 154.1 128.315 154.205 128.416 154.288C128.594 154.427 128.801 154.522 129.022 154.565C129.243 154.608 129.471 154.598 129.688 154.536C129.276 154.463 128.879 154.32 128.649 154.056C128.595 154 128.554 153.933 128.528 153.86C128.501 153.787 128.49 153.709 128.495 153.631C128.513 153.477 128.561 153.444 128.748 153.185C128.863 152.977 128.931 152.746 128.948 152.508C128.969 152.291 128.969 152.073 128.948 151.855C128.911 151.429 128.812 151.011 128.655 150.613V150.613Z" fill="#F99893"/>
<path d="M131.104 151.172C131.11 151.3 131.153 151.423 131.229 151.525C131.305 151.628 131.409 151.706 131.529 151.75C131.649 151.793 131.779 151.8 131.903 151.769C132.027 151.738 132.139 151.672 132.225 151.577C132.311 151.483 132.367 151.365 132.386 151.239C132.405 151.112 132.386 150.983 132.332 150.868C132.278 150.752 132.19 150.655 132.081 150.589C131.972 150.523 131.845 150.492 131.718 150.498C131.547 150.506 131.387 150.582 131.272 150.708C131.157 150.834 131.097 151.001 131.104 151.172V151.172Z" fill="#333333"/>
<path d="M125.591 151.8C125.598 151.927 125.641 152.05 125.717 152.153C125.793 152.256 125.897 152.333 126.017 152.377C126.137 152.42 126.267 152.426 126.391 152.396C126.515 152.365 126.627 152.298 126.713 152.204C126.798 152.109 126.854 151.991 126.873 151.865C126.892 151.739 126.873 151.61 126.819 151.494C126.765 151.379 126.677 151.282 126.568 151.216C126.459 151.15 126.333 151.118 126.205 151.124C126.034 151.133 125.874 151.209 125.759 151.335C125.644 151.462 125.584 151.629 125.591 151.8Z" fill="#333333"/>
<path d="M132.187 155.545C132.019 155.692 131.841 155.828 131.653 155.949C131.47 156.074 131.278 156.186 131.079 156.283C130.686 156.479 130.263 156.61 129.827 156.668C129.392 156.72 128.95 156.687 128.527 156.572C128.101 156.446 127.695 156.261 127.319 156.023C127.664 156.32 128.061 156.548 128.49 156.697C128.927 156.845 129.391 156.892 129.848 156.836C130.303 156.775 130.741 156.626 131.139 156.398C131.535 156.177 131.89 155.889 132.187 155.545Z" fill="#F99893"/>
<path d="M130.298 149.714C130.606 149.616 130.922 149.54 131.241 149.487C131.538 149.44 131.839 149.433 132.138 149.468C132.435 149.501 132.725 149.578 132.999 149.696C133.214 149.763 133.734 150.071 133.871 150.129C133.708 149.812 133.47 149.54 133.177 149.337C132.884 149.133 132.547 149.005 132.193 148.963C131.833 148.921 131.469 148.97 131.133 149.105C130.806 149.23 130.518 149.441 130.298 149.714Z" fill="#07085B"/>
<path d="M127.456 150.035C127.188 149.809 126.864 149.658 126.518 149.599C126.162 149.532 125.796 149.555 125.451 149.666C125.112 149.776 124.805 149.967 124.558 150.224C124.311 150.481 124.13 150.795 124.033 151.138C124.153 151.051 124.606 150.649 124.804 150.538C125.05 150.368 125.32 150.236 125.605 150.145C125.89 150.054 126.187 150.002 126.487 149.992C126.811 149.982 127.135 149.997 127.456 150.035V150.035Z" fill="#07085B"/>
<path d="M130.54 194.443C130.54 194.443 131.979 204.238 122.53 205.944C113.082 207.65 101.316 207.144 101.316 207.144L99.6784 229.642L94.745 229.894C94.745 229.894 82.0402 198.635 99.6256 193.748L115.43 193.826L121.937 193.361C121.937 193.361 128.522 191.732 128.6 192.041C128.678 192.349 130.386 194.598 130.54 194.443Z" fill="#06BFAD"/>
<path d="M139.227 194.495C139.227 194.495 140.665 204.289 131.217 205.996C121.769 207.702 110.002 207.196 110.002 207.196L108.365 229.693L103.432 229.945C103.432 229.945 90.7316 198.684 108.316 193.8L124.12 193.878L130.627 193.413C130.627 193.413 137.212 191.784 137.29 192.093C137.368 192.401 139.072 194.65 139.227 194.495Z" fill="#02CCC0"/>
<path d="M127.322 162.36C127.322 162.36 120.815 163.187 119.162 164.532C117.509 165.877 109.556 185.629 109.556 185.629L116.167 193.386L130.214 193.489C130.214 193.489 140.751 199.177 147.362 193.799C153.974 188.421 150.565 169.703 146.743 165.67C142.92 161.637 136.103 161.74 136.103 161.74C136.103 161.74 129.905 166.08 127.322 162.36Z" fill="#FF5B7E"/>
<path d="M139.924 172.181C139.699 173.259 139.538 174.35 139.445 175.448C139.388 175.995 139.364 176.546 139.333 177.095C139.302 177.645 139.303 178.198 139.312 178.75C139.318 179.856 139.409 180.96 139.583 182.051C139.767 183.139 140.036 184.229 140.541 185.212C140.201 184.165 140.033 183.087 139.911 182.006C139.789 180.925 139.75 179.834 139.736 178.744C139.722 177.655 139.736 176.561 139.774 175.468C139.813 174.375 139.865 173.279 139.924 172.181Z" fill="white"/>
<path d="M120.455 171.458C120.158 173.06 119.844 174.656 119.524 176.25C119.204 177.843 118.859 179.431 118.474 181.008C118.089 182.585 117.67 184.151 117.156 185.688C116.903 186.456 116.609 187.21 116.277 187.947C115.96 188.694 115.54 189.392 115.029 190.022C115.629 189.463 116.066 188.755 116.468 188.041C116.851 187.317 117.186 186.568 117.471 185.799C117.763 185.035 118.014 184.256 118.251 183.474C118.488 182.691 118.691 181.901 118.886 181.107C119.082 180.314 119.246 179.516 119.412 178.717C119.579 177.918 119.721 177.115 119.849 176.31C120.11 174.701 120.317 173.083 120.455 171.458Z" fill="white"/>
<path d="M117.181 188.912C117.222 188.585 119.705 188.22 120.618 188.172C121.309 188.137 125.891 187.983 127.449 187.913L127.33 188.315L127.354 190.087L127.609 191.261C126.241 191.348 122.898 191.479 122.202 191.621C121.272 191.804 119.659 192.506 119.659 192.506C119.659 192.506 118.987 192.354 119.84 191.985C120.359 191.757 120.825 191.423 121.208 191.004C121.328 190.873 121.199 190.644 121.114 190.662C118.792 191.271 118.554 191.372 118.554 191.372C118.554 191.372 115.826 191.357 118.538 190.742C120.164 190.375 120.747 190.16 120.892 189.978C120.953 189.9 120.843 189.636 120.745 189.63C119.335 189.542 116.807 190.043 117.499 189.714C118.065 189.447 119.843 189.153 120.535 189.043C120.577 189.043 120.646 188.779 120.457 188.762C119.122 188.647 117.143 189.217 117.181 188.912Z" fill="#FFC0BB"/>
<path d="M141.512 184.941C140.94 185.081 140.377 185.24 139.803 185.36C139.229 185.48 138.656 185.6 138.084 185.72C136.933 185.931 135.777 186.116 134.618 186.276C133.459 186.428 132.297 186.569 131.132 186.681C129.967 186.794 128.793 186.895 127.645 186.96L127.49 186.968L127.456 187.103C127.361 187.484 127.29 187.871 127.244 188.262C127.196 188.65 127.174 189.042 127.176 189.433C127.178 189.826 127.212 190.219 127.277 190.607C127.349 190.995 127.463 191.374 127.617 191.737L127.63 191.768L127.655 191.785L128.931 192.643C129.356 192.929 129.783 193.211 130.213 193.49C129.814 193.169 129.41 192.854 129.004 192.541L127.788 191.601L127.827 191.649C127.698 191.298 127.609 190.933 127.56 190.562C127.513 190.189 127.495 189.813 127.504 189.437C127.519 189.06 127.553 188.684 127.606 188.311C127.659 187.939 127.735 187.572 127.833 187.209L127.645 187.352C128.251 187.335 128.826 187.297 129.416 187.254C130.006 187.211 130.59 187.164 131.174 187.101C132.344 186.981 133.512 186.835 134.674 186.649C135.837 186.463 136.991 186.234 138.136 185.964C138.706 185.817 139.277 185.677 139.839 185.499C140.405 185.336 140.96 185.138 141.512 184.941Z" fill="white"/>
<path d="M87.7949 175.75H113.205L120.409 193.357H132.65C132.815 193.357 132.972 193.423 133.088 193.539C133.204 193.655 133.27 193.813 133.27 193.978V193.978C133.27 194.059 133.254 194.14 133.223 194.215C133.192 194.29 133.146 194.359 133.089 194.416C133.031 194.474 132.963 194.52 132.887 194.551C132.812 194.582 132.732 194.598 132.65 194.598H96.2449L87.7949 175.75Z" fill="#07085B"/>
<path d="M100.395 185.797C100.544 186.548 101.198 187.05 101.853 186.918C102.509 186.786 102.919 186.072 102.769 185.322C102.619 184.572 101.966 184.069 101.31 184.201C100.655 184.333 100.244 185.047 100.395 185.797Z" fill="#DAEEF7"/>
<path d="M122.061 143.579C122.061 143.579 119.892 143.649 122.169 141.813C124.447 139.977 130.559 137.821 134.476 139.893C134.476 139.893 135.26 138.224 136.394 138.623C137.528 139.021 135.657 140.168 135.657 140.168C135.657 140.168 137.103 140.122 137.545 140.832C137.871 141.356 136.986 141.379 136.502 141.356C137.324 141.497 140.481 143.493 138.899 149.865C138.336 149.745 135.127 145.083 135.127 145.083C135.127 145.083 127.789 149.163 128.516 145.923C128.516 145.923 120.913 150.673 121.992 146.749C121.988 146.746 119.048 146.962 122.061 143.579Z" fill="#07085B"/>
<path d="M138.902 149.904C138.902 149.904 138.294 149.69 137.641 150.209C136.987 150.727 137.059 152.552 137.059 152.552C137.059 152.552 133.943 154.566 134.269 146.045C134.619 136.98 136.871 146.772 136.871 146.772L138.902 149.904Z" fill="#07085B"/>
<path d="M236.817 230.91H301.321V227.329H236.817V230.91Z" fill="#DAEEF7"/>
<path d="M299.525 199.618L300.503 204.123C300.592 204.533 300.599 204.957 300.524 205.371C300.449 205.784 300.292 206.178 300.064 206.531C299.836 206.884 299.541 207.188 299.195 207.426C298.849 207.664 298.46 207.831 298.049 207.918L240.442 220.09C240.023 220.178 239.59 220.181 239.17 220.099C238.749 220.016 238.35 219.849 237.995 219.608C237.641 219.367 237.339 219.057 237.107 218.696C236.875 218.335 236.718 217.931 236.646 217.509L236.139 214.551C236.027 213.895 236.123 213.22 236.413 212.622C236.704 212.023 237.173 211.53 237.757 211.212L255.01 201.817C255.375 201.618 255.775 201.493 256.189 201.449L295.708 197.173L295.992 197.136C296.785 197.03 297.588 197.227 298.242 197.687C298.897 198.146 299.354 198.836 299.525 199.618Z" fill="#DAEEF7"/>
<path d="M241.26 213C241.26 213 233.033 219 239.024 228.892L238.664 231.443L228.117 232.163L218.459 230.194L216.668 214.08L239.835 207.184L241.26 213Z" fill="#E03268"/>
<path d="M217.127 236.76H306.7C307.548 236.76 308.235 236.071 308.235 235.222V230.433C308.235 229.584 307.548 228.896 306.7 228.896H217.127C216.279 228.896 215.592 229.584 215.592 230.433V235.222C215.592 236.071 216.279 236.76 217.127 236.76Z" fill="#FF5B7E"/>
<path d="M306.171 198.583L240.331 214.127C239.804 214.25 239.254 214.236 238.734 214.086C236.143 213.341 227.36 211.483 219.969 217.799C218.224 219.29 215.534 218.497 214.902 216.289L213.723 212.142C213.537 211.488 213.569 210.791 213.812 210.157C214.056 209.523 214.5 208.985 215.075 208.625C224.634 202.635 266.483 177.553 294.034 179.465C295.314 179.554 296.552 179.953 297.644 180.628C298.735 181.303 299.646 182.234 300.298 183.339L307.476 195.518C307.64 195.798 307.737 196.112 307.758 196.435C307.779 196.759 307.723 197.082 307.596 197.381C307.469 197.679 307.274 197.943 307.027 198.152C306.779 198.361 306.486 198.508 306.171 198.583V198.583Z" fill="#FF5B7E"/>
<path d="M228.588 226.535C230.762 226.535 232.523 224.771 232.523 222.595C232.523 220.419 230.762 218.655 228.588 218.655C226.415 218.655 224.653 220.419 224.653 222.595C224.653 224.771 226.415 226.535 228.588 226.535Z" fill="#FF5B7E"/>
<path d="M236.558 46.3943C236.558 46.3943 243.965 45.1427 246.451 53.4287L243.382 58.0259C243.382 58.0259 236.948 55.5515 236.923 55.3091C236.898 55.0667 236.558 46.3943 236.558 46.3943Z" fill="#FF5B7E"/>
<path d="M224.637 50.1263C224.637 50.1263 222.479 53.3795 221.374 54.6695C218.602 57.9095 218.245 56.8967 216.521 59.6867C214.661 62.6999 216.543 64.5863 217.613 65.4539C218.684 66.3215 216.894 69.5339 218.886 71.3339C221.494 73.6907 223.908 71.4683 225.702 72.7883C227.497 74.1083 227.89 76.0655 232.143 75.6959C236.397 75.3263 236.359 61.4003 236.359 61.4003C236.359 61.4003 232.876 54.0179 232.738 53.9603C232.6 53.9027 224.637 50.1263 224.637 50.1263Z" fill="#FF5B7E"/>
<path d="M246.451 53.4283C246.451 53.4283 246.705 55.9843 247.549 57.4555C249.672 61.1587 250.816 59.9455 251.992 63.0079C253.262 66.3139 251.063 67.8175 249.851 68.4727C248.64 69.1279 249.803 72.6151 247.512 74.0143C244.515 75.8455 242.552 73.2139 240.544 74.1775C238.537 75.1411 237.788 76.9915 233.677 75.8383C229.565 74.6851 232.184 61.0099 232.184 61.0099C232.184 61.0099 236.979 54.4015 237.121 54.3667C237.264 54.3319 246.451 53.4283 246.451 53.4283Z" fill="#FF5B7E"/>
<path d="M235.703 69.919C235.703 69.919 228.603 68.6122 225.338 68.719C222.073 68.8258 227.317 77.3279 227.317 77.3279L232.65 77.4479C232.65 77.4479 235.918 73.7926 235.703 73.3678C235.489 72.943 235.713 70.153 235.713 70.153L235.703 69.919Z" fill="#FFC0BB"/>
<path d="M229.372 63.1366L227.5 68.8282C227.5 68.8282 229.13 72.2026 234.123 70.7482C234.123 70.7482 233.553 69.5698 234.317 67.1482C235.098 64.6606 229.372 63.1366 229.372 63.1366Z" fill="#FFC0BB"/>
<path opacity="0.6" d="M229.372 63.1366L228.493 65.7958C229.016 67.7386 230.715 69.061 233.92 69.4726C233.932 68.6796 234.066 67.8931 234.317 67.141C235.097 64.6606 229.372 63.1366 229.372 63.1366Z" fill="#FC8D84"/>
<path d="M240.794 58.9704C240.389 59.8944 240.66 60.9072 241.393 61.2312C242.127 61.5552 243.058 61.0704 243.463 60.1512C243.868 59.232 243.598 58.2144 242.864 57.8904C242.129 57.5664 241.202 58.0464 240.794 58.9704Z" fill="#F99893"/>
<path d="M241.004 63.1666C241.447 62.0189 241.741 60.8191 241.88 59.5966C241.909 59.3566 241.953 59.1226 242 58.8874C242.216 57.8265 242.209 56.7323 241.979 55.6742C241.75 54.6162 241.303 53.6175 240.668 52.7415C240.032 51.8656 239.222 51.1315 238.288 50.586C237.354 50.0406 236.316 49.6955 235.242 49.5729C234.167 49.4503 233.079 49.5528 232.047 49.8738C231.014 50.1948 230.059 50.7274 229.243 51.4377C228.427 52.148 227.767 53.0205 227.306 53.9997C226.845 54.9789 226.592 56.0435 226.564 57.1258C226.084 56.8414 225.536 56.7658 225.049 56.9674C224.112 57.3562 223.748 58.621 224.233 59.7922C224.719 60.9634 225.872 61.5982 226.808 61.2094C226.937 61.156 227.058 61.0849 227.168 60.9982C227.455 64.8286 230.503 67.8622 234.256 67.8994C237.068 67.9282 239.835 66.2182 241.004 63.1666Z" fill="#FFC0BB"/>
<path d="M236.105 57.3035C235.959 57.7294 235.875 58.1738 235.854 58.6235C235.841 58.8525 235.849 59.0823 235.878 59.3098C235.908 59.5578 235.989 59.7967 236.118 60.0106C236.289 60.229 236.378 60.3022 236.403 60.4774C236.412 60.5606 236.403 60.6446 236.378 60.7242C236.352 60.8037 236.31 60.877 236.255 60.9394C236.015 61.2346 235.602 61.3966 235.176 61.4842C235.405 61.5381 235.644 61.5374 235.873 61.4824C236.101 61.4274 236.314 61.3195 236.494 61.1674C236.597 61.0773 236.678 60.9651 236.732 60.8392C236.785 60.7133 236.81 60.5769 236.803 60.4402C236.783 60.1378 236.646 60.0034 236.471 59.7742C236.376 59.6089 236.311 59.4282 236.277 59.2402C236.236 59.034 236.207 58.8257 236.189 58.6163C236.148 58.1855 236.131 57.7499 236.105 57.3035Z" fill="#F99893"/>
<path d="M233.542 57.9899C233.541 58.1247 233.499 58.256 233.423 58.3673C233.347 58.4786 233.24 58.5648 233.115 58.6151C232.99 58.6653 232.853 58.6774 232.722 58.6497C232.59 58.622 232.469 58.5558 232.375 58.4595C232.281 58.3631 232.217 58.241 232.192 58.1085C232.168 57.9761 232.182 57.8392 232.235 57.7152C232.288 57.5912 232.376 57.4857 232.489 57.4119C232.602 57.3382 232.734 57.2996 232.869 57.3011C232.958 57.302 233.046 57.3206 233.129 57.3557C233.211 57.3908 233.285 57.4418 233.348 57.5058C233.41 57.5697 233.46 57.6454 233.493 57.7285C233.527 57.8115 233.543 57.9003 233.542 57.9899V57.9899Z" fill="#333333"/>
<path d="M239.384 58.433C239.383 58.5677 239.341 58.699 239.265 58.8103C239.189 58.9215 239.082 59.0078 238.957 59.0581C238.833 59.1084 238.696 59.1205 238.564 59.0929C238.432 59.0653 238.311 58.9992 238.217 58.903C238.123 58.8068 238.059 58.6848 238.034 58.5524C238.009 58.42 238.024 58.2831 238.077 58.1591C238.129 58.0351 238.218 57.9295 238.33 57.8556C238.443 57.7818 238.575 57.743 238.709 57.7442C238.89 57.7461 239.062 57.8197 239.189 57.9488C239.315 58.078 239.386 58.2521 239.384 58.433V58.433Z" fill="#333333"/>
<g style="mix-blend-mode:multiply" opacity="0.3">
<path d="M233.421 63.1718C233.736 63.0753 234.067 63.0479 234.393 63.0913C234.72 63.1348 235.033 63.2482 235.311 63.4238C235.311 63.4238 236.301 62.8033 237.081 63.3962C237.081 63.3962 236.722 64.8722 235.093 64.7726C233.464 64.673 233.421 63.1718 233.421 63.1718Z" fill="#F99893"/>
</g>
<path d="M232.57 62.6398C232.753 62.7892 232.946 62.9252 233.148 63.0466C233.346 63.1717 233.552 63.2816 233.766 63.3754C234.189 63.5681 234.64 63.6897 235.102 63.7354C235.563 63.7735 236.027 63.7221 236.468 63.5842C236.913 63.4348 237.335 63.2239 237.722 62.9578C237.545 63.1178 237.356 63.2631 237.156 63.3922C236.952 63.5189 236.737 63.6265 236.514 63.7138C236.287 63.7994 236.052 63.8601 235.812 63.895C235.572 63.926 235.328 63.9324 235.086 63.9142C234.604 63.8673 234.136 63.7271 233.708 63.5014C233.281 63.2833 232.896 62.9916 232.57 62.6398Z" fill="#F99893"/>
<path d="M234.338 56.4199C234.009 56.3277 233.674 56.2599 233.335 56.2171C233.021 56.1786 232.702 56.1834 232.389 56.2315C232.078 56.2785 231.775 56.3711 231.49 56.5063C231.266 56.5843 230.728 56.9287 230.588 56.9971C230.746 56.6559 230.986 56.3591 231.287 56.133C231.587 55.907 231.939 55.7586 232.31 55.7011C232.688 55.643 233.074 55.6802 233.433 55.8091C233.784 55.9286 234.096 56.1394 234.338 56.4199V56.4199Z" fill="#FF5B7E"/>
<path d="M237.351 56.6481C237.625 56.3991 237.961 56.2277 238.324 56.1513C238.696 56.0671 239.084 56.0774 239.452 56.1813C239.814 56.2833 240.146 56.4732 240.418 56.7342C240.69 56.9952 240.893 57.3193 241.01 57.6777C240.877 57.5925 240.385 57.1857 240.171 57.0777C239.905 56.9092 239.615 56.7806 239.311 56.6961C239.006 56.61 238.691 56.5664 238.374 56.5665C238.031 56.5685 237.689 56.5958 237.351 56.6481V56.6481Z" fill="#FF5B7E"/>
<path d="M223.353 104.689C223.353 104.689 221.26 114.554 230.76 116.896C240.26 119.239 252.249 119.476 252.249 119.476L252.471 142.455L257.471 143.027C257.471 143.027 272.394 112.067 254.826 105.965L238.755 105.028L232.162 104.137C232.162 104.137 225.57 102.058 225.473 102.368C225.376 102.677 223.502 104.857 223.353 104.689Z" fill="#F4A640"/>
<path d="M214.517 104.184C214.517 104.184 212.423 114.047 221.923 116.39C231.423 118.732 243.412 118.971 243.412 118.971L243.634 141.949L248.635 142.522C248.635 142.522 263.557 111.562 245.989 105.459L229.917 104.523L223.324 103.632C223.324 103.632 216.732 101.552 216.635 101.863C216.538 102.174 214.661 104.35 214.517 104.184Z" fill="#FEB546"/>
<path d="M246.285 119.631C246.012 119.58 245.737 119.533 245.467 119.47C245.198 119.406 244.929 119.334 244.666 119.255C244.534 119.213 244.399 119.169 244.269 119.121C244.406 119.09 244.54 119.05 244.672 119.001C244.93 118.905 245.177 118.779 245.405 118.624C245.627 118.464 245.833 118.283 246.019 118.083C246.2 117.882 246.361 117.664 246.498 117.431L246.226 117.727C246.128 117.819 246.038 117.916 245.936 118.001C245.741 118.177 245.529 118.334 245.304 118.47C245.081 118.604 244.845 118.715 244.6 118.801C244.359 118.886 244.108 118.937 243.853 118.951L243.408 118.968L243.803 119.152C244.063 119.267 244.333 119.362 244.609 119.434C244.882 119.508 245.158 119.567 245.436 119.611C245.713 119.657 245.991 119.695 246.275 119.717C246.559 119.739 246.835 119.751 247.114 119.749C246.836 119.715 246.559 119.68 246.285 119.631Z" fill="#DAEEF7"/>
<path d="M243.771 83.7684C243.771 83.7684 244.418 99.8868 246.228 102.41L236.271 100.145V82.6031L243.771 83.7684Z" fill="#FFC0BB"/>
<path d="M239.53 85.9691C239.53 85.9691 238.144 90.0263 237.893 92.1803C237.267 97.5323 237.946 101.306 239.053 104.353C240.604 108.625 227.932 107.071 227.673 106.941C227.415 106.812 216.553 102.6 216.553 102.6L214.484 96.5795V85.9691L215.066 81.1139L239.53 85.9691Z" fill="#02CCC0"/>
<path d="M209.18 81.12L217.154 83.8392C217.154 83.8392 215.776 96.612 216.206 98.4252C216.575 99.9744 222.357 103.055 226.022 104.785C226.611 105.063 227.263 105.181 227.911 105.128C229.999 104.956 233.699 104.633 234.279 104.592C235.192 104.53 237.7 104.592 237.78 104.914C237.855 105.211 235.821 104.884 234.502 105.154C234.317 105.191 234.416 105.439 234.459 105.44C235.159 105.467 236.959 105.545 237.553 105.742C238.279 105.982 235.709 105.792 234.317 106.048C234.219 106.066 234.142 106.342 234.212 106.408C234.378 106.572 234.982 106.715 236.641 106.888C239.407 107.171 236.701 107.514 236.701 107.514C236.701 107.514 236.451 107.443 234.073 107.117C233.987 107.105 233.889 107.357 234.021 107.468C234.451 107.838 234.954 108.114 235.497 108.278C236.387 108.541 235.737 108.774 235.737 108.774C235.737 108.774 234.052 108.27 233.1 108.199C232.392 108.146 229.057 108.419 227.688 108.497L227.584 108.257C225.73 108.203 210.936 107.819 209.512 98.6388C208.059 89.184 209.18 81.12 209.18 81.12Z" fill="#FFC0BB"/>
<path d="M267.139 90.2612H241.73L234.525 107.869H222.284C222.119 107.869 221.962 107.934 221.845 108.05C221.729 108.167 221.663 108.325 221.663 108.489C221.663 108.571 221.679 108.652 221.71 108.727C221.742 108.802 221.787 108.871 221.845 108.928C221.903 108.986 221.971 109.032 222.046 109.063C222.122 109.094 222.202 109.11 222.284 109.11H258.695L267.139 90.2612Z" fill="#07085B"/>
<path d="M254.545 100.309C254.395 101.06 253.741 101.562 253.085 101.43C252.43 101.298 252.02 100.59 252.17 99.8341C252.319 99.0781 252.973 98.5812 253.628 98.7132C254.284 98.8452 254.699 99.5592 254.545 100.309Z" fill="#DAEEF7"/>
<path d="M235.704 69.9187C235.704 69.9187 230.877 75.5587 225.338 68.7187C225.338 68.7187 219.288 68.2243 214.827 71.3971C210.366 74.5699 207.695 81.6931 207.695 81.6931C207.695 81.6931 215.777 85.7731 217.781 85.9651H240.216C240.216 85.9651 243.643 85.7059 246.94 84.0235C246.94 84.0271 246.371 72.7027 235.704 69.9187Z" fill="#02CCC0"/>
<path d="M220.731 79.5421C220.522 80.2417 220.335 80.9461 220.15 81.6529C219.801 83.0377 219.482 84.3577 219.247 85.7761C218.791 85.7823 218.335 85.7469 217.884 85.6704C215.554 85.2553 214.024 84.6013 211.949 83.7505C208.841 82.3321 209.261 82.4701 207.695 81.6961C209.024 82.5535 210.401 83.3333 211.82 84.0313C213.638 84.8713 215.375 85.6549 217.82 86.0857C218.888 86.2321 219.196 86.2057 219.602 86.1541C219.759 85.1149 219.94 84.0505 220.441 81.7141L220.902 79.5793L221.382 77.4445C221.142 78.1429 220.938 78.8401 220.731 79.5421Z" fill="#07085B"/>
<path d="M238.428 75.8124C238.747 76.6404 239.034 77.4732 239.288 78.3108C239.546 79.1452 239.755 79.9943 239.912 80.8536C240.073 81.706 240.142 82.5735 240.117 83.4408C240.084 84.306 238.805 88.374 238.428 89.1792C238.96 88.4652 240.353 84.3624 240.447 83.4672C240.537 82.5701 240.497 81.6647 240.327 80.7792C240.167 79.8992 239.923 79.0365 239.599 78.2028C239.287 77.3696 238.895 76.569 238.428 75.8124Z" fill="#07085B"/>
<path d="M226.561 57.1256C226.561 57.1256 234.85 55.124 238.809 49.4852C238.809 49.4852 238.879 44.3492 231.269 45.5144C223.875 46.646 222.144 53.8496 226.561 57.1256Z" fill="#FF5B7E"/>
<path d="M308.754 236.546H50.5343C49.7711 236.546 49.1523 237.165 49.1523 237.93V238.566C49.1523 239.33 49.7711 239.949 50.5343 239.949H308.754C309.517 239.949 310.136 239.33 310.136 238.566V237.93C310.136 237.165 309.517 236.546 308.754 236.546Z" fill="#C4DFE8"/>
<path d="M47.5684 124.462L97.4194 95.9149L104.157 109.277L53.1477 136.295L47.5684 124.462Z" fill="#F4A640"/>
<path d="M141.512 43.147C141.512 43.147 141.119 47.0278 138.059 47.2966C141.119 47.5654 141.512 51.4474 141.512 51.4474C141.512 51.4474 141.905 47.5654 144.965 47.2966C141.91 47.0278 141.512 43.147 141.512 43.147Z" fill="#02CCC0"/>
<path d="M88.6497 13.327C88.6497 13.327 88.1259 18.4978 84.0508 18.8554C88.1259 19.2154 88.6497 24.3826 88.6497 24.3826C88.6497 24.3826 89.1723 19.213 93.2474 18.8554C89.1723 18.4978 88.6497 13.327 88.6497 13.327Z" fill="#FEB546"/>
<path d="M67.3006 59.5715C67.3006 59.5715 66.9483 63.0431 64.2119 63.2831C66.9483 63.5231 67.3006 66.9959 67.3006 66.9959C67.3006 66.9959 67.6518 63.5231 70.3882 63.2831C67.6518 63.0431 67.3006 59.5715 67.3006 59.5715Z" fill="#FF5B7E"/>
<path d="M300.573 130.767C300.573 130.767 300.051 135.937 295.975 136.294C300.05 136.654 300.573 141.823 300.573 141.823C300.573 141.823 301.097 136.652 305.172 136.294C301.097 135.937 300.573 130.767 300.573 130.767Z" fill="#FF5B7E"/>
<path d="M17.6263 96.8835C17.6263 96.8835 17.1025 102.053 13.0273 102.411C17.1025 102.771 17.6263 107.939 17.6263 107.939C17.6263 107.939 18.15 102.768 22.2252 102.411C18.15 102.053 17.6263 96.8835 17.6263 96.8835Z" fill="#02CCC0"/>
<path d="M316.064 90.3864C316.064 90.3864 315.54 95.5572 311.465 95.9148C315.54 96.2748 316.064 101.443 316.064 101.443C316.064 101.443 316.588 96.2724 320.663 95.9148C316.584 95.5572 316.064 90.3864 316.064 90.3864Z" fill="#02CCC0"/>
<path d="M193.52 10.1471C193.52 10.1471 192.996 15.3167 188.921 15.6743C192.996 16.0343 193.52 21.2027 193.52 21.2027C193.52 21.2027 194.05 16.0319 198.125 15.6743C194.05 15.3167 193.52 10.1471 193.52 10.1471Z" fill="#FF5B7E"/>
<path d="M280.826 49.8358C280.826 49.8358 280.54 53.0998 278.325 53.3266C280.54 53.5522 280.826 56.8162 280.826 56.8162C280.826 56.8162 281.11 53.5522 283.325 53.3266C281.11 53.0998 280.826 49.8358 280.826 49.8358Z" fill="#FEB546"/>
</svg>
